<?xml version="1.0" encoding="UTF-8"?>
<svg id="Capa_2" data-name="Capa 2" xmlns="http://www.w3.org/2000/svg" viewBox="0 0 596.2 221.32">
  <defs>
    <style>
      .cls-1 {
        fill: #fff;
      }

      .cls-2 {
        fill: #e4042c;
      }
    </style>
  </defs>
  <g id="Capa_1-2" data-name="Capa 1">
    <path class="cls-2" d="M52.53,99.39H0V1.89h49.83c24.1,0,38.49,9.8,38.49,26.2,0,8.55-3.81,15.65-10.81,20.27,9.83,4.52,15.4,12.97,15.4,23.6,0,17.43-14.72,27.42-40.38,27.42ZM3,96.39h49.53c24.1,0,37.38-8.67,37.38-24.42,0-10.43-5.78-18.22-16.28-21.94l-3.26-1.16,3.08-1.59c7.66-3.96,11.88-10.77,11.88-19.19,0-14.75-12.94-23.2-35.49-23.2H3v91.5ZM50.37,80.08h-23.91v-22.17h23.91c12.84,0,15.54,6.03,15.54,11.08s-2.7,11.08-15.54,11.08ZM29.46,77.08h20.91c12.54,0,12.54-6.08,12.54-8.08s0-8.08-12.54-8.08h-20.91v16.17ZM46.32,42.42h-19.86v-21.22h19.86c13.05,0,15,6.61,15,10.54,0,4.87-2.6,10.68-15,10.68ZM29.46,39.42h16.86c12,0,12-5.78,12-7.68s0-7.54-12-7.54h-16.86v15.22Z"/>
    <path class="cls-2" d="M177.96,99.39h-74.82V1.89h29.73v73.3h45.09v24.19ZM106.14,96.39h68.82v-18.19h-45.09V4.89h-23.73v91.5Z"/>
    <path class="cls-2" d="M292.24,99.39h-31.12l-7.42-18.36h-37.94l-7.42,18.36h-30.58L220.79,1.89h28.28l43.18,97.5ZM263.14,96.39h24.49L247.11,4.89h-24.37l-40.39,91.5h23.96l7.42-18.36h41.98l7.42,18.36ZM249.09,61.32h-28.74l14.37-35.76,14.37,35.76ZM224.79,58.32h19.86l-9.93-24.72-9.93,24.72Z"/>
    <path class="cls-2" d="M337.59,101.28c-30.98,0-53.47-21.3-53.47-50.64S306.61,0,337.59,0c17.73,0,32.18,6.36,41.8,18.38l.88,1.1-19.22,17.39-1-1.2c-5.88-7.08-12.79-10.53-21.12-10.53-14.85,0-24.82,10.25-24.82,25.5s9.98,25.5,24.82,25.5c8.33,0,15.24-3.44,21.12-10.53l1-1.2,19.22,17.39-.88,1.1c-9.62,12.03-24.08,18.38-41.8,18.38ZM337.59,3c-29.25,0-50.47,20.03-50.47,47.64s21.23,47.64,50.47,47.64c16.24,0,29.54-5.58,38.56-16.17l-14.81-13.4c-6.21,6.92-13.74,10.43-22.41,10.43-16.38,0-27.82-11.72-27.82-28.5s11.44-28.5,27.82-28.5c8.67,0,16.2,3.51,22.41,10.43l14.81-13.4c-9.03-10.58-22.33-16.17-38.56-16.17Z"/>
    <path class="cls-2" d="M486.98,99.39h-34.83l-26.37-33.49-8.39,8.96v24.53h-29.46V1.89h29.46v36.97L451.82,1.89h33.51l-40.07,43.43,41.72,54.06ZM453.61,96.39h27.27l-39.54-51.23,37.14-40.26h-25.35l-38.74,41.59V4.89h-23.46v91.5h23.46v-22.72l11.59-12.37,27.63,35.09Z"/>
    <g>
      <path class="cls-1" d="M99.08,221.32h-29.73v-97.5h77.11v23.65h-47.38v17.79h41.71v23.65h-41.71v32.4ZM72.35,218.32h23.73v-32.4h41.71v-17.65h-41.71v-23.79h47.38v-17.65h-71.11v91.5Z"/>
      <path class="cls-1" d="M246.09,221.32h-32.26l-17.14-25.11h-12.29v25.11h-29.73v-97.5h44.7c26.82,0,43.48,13.97,43.48,36.46,0,13.49-6.3,24.22-17.79,30.39l21.03,30.64ZM215.41,218.32h24.98l-19.76-28.79,1.57-.76c11.54-5.57,17.65-15.42,17.65-28.48,0-20.64-15.51-33.46-40.48-33.46h-41.7v91.5h23.73v-25.11h16.87l17.14,25.11ZM197.75,175.56h-16.35v-30.67h16.35c11.67,0,18.1,5.47,18.1,15.4s-6.6,15.27-18.1,15.27ZM184.4,172.56h13.35c6.89,0,15.1-2.13,15.1-12.27s-8.21-12.4-15.1-12.4h-13.35v24.67Z"/>
      <path class="cls-1" d="M282.94,221.32h-29.73v-97.5h29.73v97.5ZM256.22,218.32h23.73v-91.5h-23.73v91.5Z"/>
      <path class="cls-1" d="M343.81,221.32h-46.18v-97.5h46.18c15.87,0,29.4,4.54,39.13,13.12,9.91,8.74,15.15,21.06,15.15,35.63s-5.24,26.89-15.15,35.63c-9.73,8.58-23.26,13.12-39.13,13.12ZM300.63,218.32h43.18c31.15,0,51.28-17.96,51.28-45.75s-20.13-45.75-51.28-45.75h-43.18v91.5ZM342.73,200h-18.38v-54.84h18.38c17.23,0,28.36,10.76,28.36,27.42s-11.13,27.42-28.36,27.42ZM327.36,197h15.38c15.64,0,25.36-9.36,25.36-24.42s-9.72-24.42-25.36-24.42h-15.38v48.84Z"/>
      <path class="cls-1" d="M505.79,221.32h-31.12l-7.42-18.36h-37.93l-7.42,18.36h-30.58l43.04-97.5h28.28l.39.89,42.78,96.6ZM476.69,218.32h24.49l-40.52-91.5h-24.37l-40.39,91.5h23.96l7.42-18.36h41.98l7.42,18.36ZM462.64,183.26h-28.74l14.37-35.76,14.37,35.76ZM438.34,180.26h19.86l-9.93-24.72-9.93,24.72Z"/>
      <path class="cls-1" d="M558.88,221.32h-29.73v-35.37l-37.19-62.12h31.71l21.56,36.1,21.56-36.1h29.41l-37.32,62.53v34.97ZM532.15,218.32h23.73v-32.8l35.04-58.7h-22.42l-23.26,38.95-23.26-38.95h-24.72l34.9,58.29v33.2Z"/>
    </g>
  </g>
</svg>