<?xml version="1.0" encoding="UTF-8" standalone="no"?>
<!DOCTYPE svg PUBLIC "-//W3C//DTD SVG 1.1//EN"
 "http://www.w3.org/Graphics/SVG/1.1/DTD/svg11.dtd">
<!-- Generated by graphviz version 9.0.0 (20230911.1827)
 -->
<!-- Title: Gráfico de jerarquía de clases Pages: 1 -->
<svg width="384pt" height="66pt"
 viewBox="0.00 0.00 384.25 66.00" xmlns="http://www.w3.org/2000/svg" xmlns:xlink="http://www.w3.org/1999/xlink">
<g id="graph0" class="graph" transform="scale(1 1) rotate(0) translate(4 62)">
<title>Gráfico de jerarquía de clases</title>
<!-- Node0 -->
<g id="Node000000" class="node">
<title>Node0</title>
<g id="a_Node000000"><a xlink:href="classjcolonia_1_1daw2023_1_1g4d_1_1_grupo4_d.html" target="_top" xlink:title="Conjunto de cuatro números decimales.">
<polygon fill="white" stroke="#666666" points="150.25,-58 0,-58 0,-38 150.25,-38 150.25,-58"/>
<text text-anchor="middle" x="75.12" y="-44.5" font-family="Helvetica,sans-Serif" font-size="10.00">jcolonia.daw2023.g4d.Grupo4D</text>
</a>
</g>
</g>
<!-- Node1 -->
<g id="Node000001" class="node">
<title>Node1</title>
<g id="a_Node000001"><a xlink:href="classjcolonia_1_1daw2023_1_1g4d_1_1_grupo4_d_mejorado.html" target="_top" xlink:title="Conjunto de cuatro números decimales, facilita el acceso a esos cuatro valores en forma de lista («ar...">
<polygon fill="white" stroke="#666666" points="376.25,-39 186.25,-39 186.25,-19 376.25,-19 376.25,-39"/>
<text text-anchor="middle" x="281.25" y="-25.5" font-family="Helvetica,sans-Serif" font-size="10.00">jcolonia.daw2023.g4d.Grupo4DMejorado</text>
</a>
</g>
</g>
<!-- Node0&#45;&gt;Node1 -->
<g id="edge2_Node000000_Node000001" class="edge">
<title>Node0&#45;&gt;Node1</title>
<g id="a_edge2_Node000000_Node000001"><a xlink:title=" ">
<path fill="none" stroke="#63b8ff" d="M162.15,-39.99C170.05,-39.26 178.09,-38.51 186.06,-37.77"/>
<polygon fill="#63b8ff" stroke="#63b8ff" points="161.82,-36.51 152.19,-40.92 162.47,-43.48 161.82,-36.51"/>
</a>
</g>
</g>
<!-- Node2 -->
<g id="Node000002" class="node">
<title>Node2</title>
<g id="a_Node000002"><a xlink:href="interfacejcolonia_1_1daw2023_1_1g4d_1_1_sumable.html" target="_top" xlink:title="Ampliación para la realizar operaciones.">
<polygon fill="white" stroke="#666666" points="150.25,-20 0,-20 0,0 150.25,0 150.25,-20"/>
<text text-anchor="middle" x="75.12" y="-6.5" font-family="Helvetica,sans-Serif" font-size="10.00">jcolonia.daw2023.g4d.Sumable</text>
</a>
</g>
</g>
<!-- Node2&#45;&gt;Node1 -->
<g id="edge3_Node000002_Node000001" class="edge">
<title>Node2&#45;&gt;Node1</title>
<g id="a_edge3_Node000002_Node000001"><a xlink:title=" ">
<path fill="none" stroke="#63b8ff" d="M162.15,-18.01C170.05,-18.74 178.09,-19.49 186.06,-20.23"/>
<polygon fill="#63b8ff" stroke="#63b8ff" points="162.47,-14.52 152.19,-17.08 161.82,-21.49 162.47,-14.52"/>
</a>
</g>
</g>
</g>
</svg>
