<?xml version="1.0" encoding="UTF-8" standalone="no"?>
<!DOCTYPE svg PUBLIC "-//W3C//DTD SVG 1.1//EN"
 "http://www.w3.org/Graphics/SVG/1.1/DTD/svg11.dtd">
<!-- Generated by graphviz version 9.0.0 (20230911.1827)
 -->
<!-- Title: jcolonia.daw2023.g4d.Grupo4DMejorado Pages: 1 -->
<svg width="398pt" height="484pt"
 viewBox="0.00 0.00 397.50 484.00" xmlns="http://www.w3.org/2000/svg" xmlns:xlink="http://www.w3.org/1999/xlink">
<g id="graph0" class="graph" transform="scale(1 1) rotate(0) translate(4 480)">
<title>jcolonia.daw2023.g4d.Grupo4DMejorado</title>
<!-- Node1 -->
<g id="Node000001" class="node">
<title>Node1</title>
<g id="a_Node000001"><a xlink:title="Conjunto de cuatro números decimales, facilita el acceso a esos cuatro valores en forma de lista («ar...">
<polygon fill="#999999" stroke="none" points="349,-180 82,-180 82,0 349,0 349,-180"/>
<text text-anchor="start" x="128.5" y="-166.5" font-family="Helvetica,sans-Serif" font-size="10.00">jcolonia.daw2023.g4d.Grupo4DMejorado</text>
<text text-anchor="start" x="214" y="-150.5" font-family="Helvetica,sans-Serif" font-size="10.00"> </text>
<text text-anchor="start" x="86" y="-134.5" font-family="Helvetica,sans-Serif" font-size="10.00">+</text>
<text text-anchor="start" x="96" y="-134.5" font-family="Helvetica,sans-Serif" font-size="10.00">Grupo4DMejorado()</text>
<text text-anchor="start" x="86" y="-118.5" font-family="Helvetica,sans-Serif" font-size="10.00">+</text>
<text text-anchor="start" x="96" y="-118.5" font-family="Helvetica,sans-Serif" font-size="10.00">Grupo4DMejorado(double a, double b, double c, double d)</text>
<text text-anchor="start" x="86" y="-102.5" font-family="Helvetica,sans-Serif" font-size="10.00">+</text>
<text text-anchor="start" x="96" y="-102.5" font-family="Helvetica,sans-Serif" font-size="10.00">Grupo4DMejorado(double[] valores)</text>
<text text-anchor="start" x="86" y="-86.5" font-family="Helvetica,sans-Serif" font-size="10.00">+</text>
<text text-anchor="start" x="96" y="-86.5" font-family="Helvetica,sans-Serif" font-size="10.00">void setValores(double[] valores)</text>
<text text-anchor="start" x="86" y="-70.5" font-family="Helvetica,sans-Serif" font-size="10.00">+</text>
<text text-anchor="start" x="96" y="-70.5" font-family="Helvetica,sans-Serif" font-size="10.00">double[] getValores()</text>
<text text-anchor="start" x="86" y="-54.5" font-family="Helvetica,sans-Serif" font-size="10.00">+</text>
<text text-anchor="start" x="96" y="-54.5" font-family="Helvetica,sans-Serif" font-size="10.00">double suma()</text>
<text text-anchor="start" x="86" y="-38.5" font-family="Helvetica,sans-Serif" font-size="10.00">+</text>
<text text-anchor="start" x="96" y="-38.5" font-family="Helvetica,sans-Serif" font-size="10.00">double media()</text>
<text text-anchor="start" x="86" y="-22.5" font-family="Helvetica,sans-Serif" font-size="10.00">+</text>
<text text-anchor="start" x="96" y="-22.5" font-family="Helvetica,sans-Serif" font-size="10.00">double máximo()</text>
<text text-anchor="start" x="86" y="-6.5" font-family="Helvetica,sans-Serif" font-size="10.00">+</text>
<text text-anchor="start" x="96" y="-6.5" font-family="Helvetica,sans-Serif" font-size="10.00">double mínimo()</text>
<polygon fill="#666666" stroke="#666666" points="82,-162 82,-162 349,-162 349,-162 82,-162"/>
<polygon fill="#666666" stroke="#666666" points="82,-146 82,-146 349,-146 349,-146 82,-146"/>
<polygon fill="none" stroke="#666666" points="82,0 82,-180 349,-180 349,0 82,0"/>
</a>
</g>
</g>
<!-- Node2 -->
<g id="Node000002" class="node">
<title>Node2</title>
<g id="a_Node000002"><a xlink:href="classjcolonia_1_1daw2023_1_1g4d_1_1_grupo4_d.html" target="_top" xlink:title="Conjunto de cuatro números decimales.">
<polygon fill="white" stroke="none" points="227,-476 0,-476 0,-216 227,-216 227,-476"/>
<text text-anchor="start" x="46.38" y="-462.5" font-family="Helvetica,sans-Serif" font-size="10.00">jcolonia.daw2023.g4d.Grupo4D</text>
<text text-anchor="start" x="5.5" y="-446.5" font-family="Helvetica,sans-Serif" font-size="10.00">&#45;</text>
<text text-anchor="start" x="14" y="-446.5" font-family="Helvetica,sans-Serif" font-size="10.00">double a</text>
<text text-anchor="start" x="5.5" y="-430.5" font-family="Helvetica,sans-Serif" font-size="10.00">&#45;</text>
<text text-anchor="start" x="14" y="-430.5" font-family="Helvetica,sans-Serif" font-size="10.00">double b</text>
<text text-anchor="start" x="5.5" y="-414.5" font-family="Helvetica,sans-Serif" font-size="10.00">&#45;</text>
<text text-anchor="start" x="14" y="-414.5" font-family="Helvetica,sans-Serif" font-size="10.00">double c</text>
<text text-anchor="start" x="5.5" y="-398.5" font-family="Helvetica,sans-Serif" font-size="10.00">&#45;</text>
<text text-anchor="start" x="14" y="-398.5" font-family="Helvetica,sans-Serif" font-size="10.00">double d</text>
<text text-anchor="start" x="4" y="-382.5" font-family="Helvetica,sans-Serif" font-size="10.00">+</text>
<text text-anchor="start" x="14" y="-382.5" font-family="Helvetica,sans-Serif" font-size="10.00">Grupo4D()</text>
<text text-anchor="start" x="4" y="-366.5" font-family="Helvetica,sans-Serif" font-size="10.00">+</text>
<text text-anchor="start" x="14" y="-366.5" font-family="Helvetica,sans-Serif" font-size="10.00">Grupo4D(double a, double b, double c, double d)</text>
<text text-anchor="start" x="4" y="-350.5" font-family="Helvetica,sans-Serif" font-size="10.00">+</text>
<text text-anchor="start" x="14" y="-350.5" font-family="Helvetica,sans-Serif" font-size="10.00">double getA()</text>
<text text-anchor="start" x="4" y="-334.5" font-family="Helvetica,sans-Serif" font-size="10.00">+</text>
<text text-anchor="start" x="14" y="-334.5" font-family="Helvetica,sans-Serif" font-size="10.00">void setA(double valor)</text>
<text text-anchor="start" x="4" y="-318.5" font-family="Helvetica,sans-Serif" font-size="10.00">+</text>
<text text-anchor="start" x="14" y="-318.5" font-family="Helvetica,sans-Serif" font-size="10.00">double getB()</text>
<text text-anchor="start" x="4" y="-302.5" font-family="Helvetica,sans-Serif" font-size="10.00">+</text>
<text text-anchor="start" x="14" y="-302.5" font-family="Helvetica,sans-Serif" font-size="10.00">void setB(double valor)</text>
<text text-anchor="start" x="4" y="-286.5" font-family="Helvetica,sans-Serif" font-size="10.00">+</text>
<text text-anchor="start" x="14" y="-286.5" font-family="Helvetica,sans-Serif" font-size="10.00">double getC()</text>
<text text-anchor="start" x="4" y="-270.5" font-family="Helvetica,sans-Serif" font-size="10.00">+</text>
<text text-anchor="start" x="14" y="-270.5" font-family="Helvetica,sans-Serif" font-size="10.00">void setC(double valor)</text>
<text text-anchor="start" x="4" y="-254.5" font-family="Helvetica,sans-Serif" font-size="10.00">+</text>
<text text-anchor="start" x="14" y="-254.5" font-family="Helvetica,sans-Serif" font-size="10.00">double getD()</text>
<text text-anchor="start" x="4" y="-238.5" font-family="Helvetica,sans-Serif" font-size="10.00">+</text>
<text text-anchor="start" x="14" y="-238.5" font-family="Helvetica,sans-Serif" font-size="10.00">void setD(double valor)</text>
<text text-anchor="start" x="4" y="-222.5" font-family="Helvetica,sans-Serif" font-size="10.00">+</text>
<text text-anchor="start" x="14" y="-222.5" font-family="Helvetica,sans-Serif" font-size="10.00">String toString()</text>
<polygon fill="#666666" stroke="#666666" points="0,-458 0,-458 227,-458 227,-458 0,-458"/>
<polygon fill="#666666" stroke="#666666" points="0,-394 0,-394 12,-394 12,-394 0,-394"/>
<polygon fill="#666666" stroke="#666666" points="12,-394 12,-394 227,-394 227,-394 12,-394"/>
<polygon fill="none" stroke="#666666" points="0,-216 0,-476 227,-476 227,-216 0,-216"/>
</a>
</g>
</g>
<!-- Node2&#45;&gt;Node1 -->
<g id="edge1_Node000001_Node000002" class="edge">
<title>Node2&#45;&gt;Node1</title>
<g id="a_edge1_Node000001_Node000002"><a xlink:title=" ">
<path fill="none" stroke="#63b8ff" d="M169.52,-205.51C173.01,-196.81 176.47,-188.2 179.83,-179.83"/>
<polygon fill="none" stroke="#63b8ff" points="166.29,-204.15 165.81,-214.74 172.79,-206.76 166.29,-204.15"/>
</a>
</g>
</g>
<!-- Node3 -->
<g id="Node000003" class="node">
<title>Node3</title>
<g id="a_Node000003"><a xlink:href="interfacejcolonia_1_1daw2023_1_1g4d_1_1_sumable.html" target="_top" xlink:title="Ampliación para la realizar operaciones.">
<polygon fill="white" stroke="none" points="389.5,-396 245.5,-396 245.5,-296 389.5,-296 389.5,-396"/>
<text text-anchor="start" x="250.38" y="-382.5" font-family="Helvetica,sans-Serif" font-size="10.00">jcolonia.daw2023.g4d.Sumable</text>
<text text-anchor="start" x="316" y="-366.5" font-family="Helvetica,sans-Serif" font-size="10.00"> </text>
<text text-anchor="start" x="263" y="-350.5" font-family="Helvetica,sans-Serif" font-size="10.00">+</text>
<text text-anchor="start" x="286.5" y="-350.5" font-family="Helvetica,sans-Serif" font-size="10.00">double suma()</text>
<text text-anchor="start" x="263" y="-334.5" font-family="Helvetica,sans-Serif" font-size="10.00">+</text>
<text text-anchor="start" x="286.5" y="-334.5" font-family="Helvetica,sans-Serif" font-size="10.00">double media()</text>
<text text-anchor="start" x="263" y="-318.5" font-family="Helvetica,sans-Serif" font-size="10.00">+</text>
<text text-anchor="start" x="286.5" y="-318.5" font-family="Helvetica,sans-Serif" font-size="10.00">double máximo()</text>
<text text-anchor="start" x="263" y="-302.5" font-family="Helvetica,sans-Serif" font-size="10.00">+</text>
<text text-anchor="start" x="286.5" y="-302.5" font-family="Helvetica,sans-Serif" font-size="10.00">double mínimo()</text>
<polygon fill="#666666" stroke="#666666" points="245.5,-378 245.5,-378 389.5,-378 389.5,-378 245.5,-378"/>
<polygon fill="#666666" stroke="#666666" points="245.5,-362 245.5,-362 389.5,-362 389.5,-362 245.5,-362"/>
<polygon fill="none" stroke="#666666" points="245.5,-296 245.5,-396 389.5,-396 389.5,-296 245.5,-296"/>
</a>
</g>
</g>
<!-- Node3&#45;&gt;Node1 -->
<g id="edge2_Node000001_Node000003" class="edge">
<title>Node3&#45;&gt;Node1</title>
<g id="a_edge2_Node000001_Node000003"><a xlink:title=" ">
<path fill="none" stroke="#63b8ff" d="M293.68,-285.68C281.05,-254.22 265.27,-214.95 251.21,-179.93"/>
<polygon fill="none" stroke="#63b8ff" points="290.29,-286.65 297.27,-294.62 296.79,-284.04 290.29,-286.65"/>
</a>
</g>
</g>
</g>
</svg>
