<?xml version="1.0" encoding="UTF-8" standalone="no"?>
<!DOCTYPE svg PUBLIC "-//W3C//DTD SVG 1.1//EN"
 "http://www.w3.org/Graphics/SVG/1.1/DTD/svg11.dtd">
<!-- Generated by graphviz version 9.0.0 (20230911.1827)
 -->
<!-- Title: jcolonia.daw2023.teatrillo.Personaje Pages: 1 -->
<svg width="222pt" height="404pt"
 viewBox="0.00 0.00 221.50 404.00" xmlns="http://www.w3.org/2000/svg" xmlns:xlink="http://www.w3.org/1999/xlink">

<svg id="main" version="1.1" xmlns="http://www.w3.org/2000/svg" xmlns:xlink="http://www.w3.org/1999/xlink" xml:space="preserve" onload="init(evt)">
<style type="text/css"><![CDATA[
.node, .edge {opacity: 0.7;}
.node.selected, .edge.selected {opacity: 1;}
.edge:hover path { stroke: red; }
.edge:hover polygon { stroke: red; fill: red; }
]]></style>
<script type="application/ecmascript" xlink:href="svg.min.js"/>
<svg id="graph" class="graph">
<g id="graph0" class="graph" transform="scale(1 1) rotate(0) translate(4 400)">
<title>jcolonia.daw2023.teatrillo.Personaje</title>
<!-- Node1 -->
<g id="Node000001" class="node">
<title>Node1</title>
<g id="a_Node000001"><a xlink:title="Sujeto que interactúa saludando al resto de personajes, contabilizando el número de frases.">
<polygon fill="#999999" stroke="none" points="213,-196 48,-196 48,0 213,0 213,-196"/>
<text text-anchor="start" x="52.88" y="-182.5" font-family="Helvetica,sans-Serif" font-size="10.00">jcolonia.daw2023.teatrillo.Personaje</text>
<text text-anchor="start" x="56" y="-166.5" font-family="Helvetica,sans-Serif" font-size="10.00">&#45;</text>
<text text-anchor="start" x="67" y="-166.5" font-family="Helvetica,sans-Serif" font-size="10.00">int númFrases</text>
<text text-anchor="start" x="54.5" y="-150.5" font-family="Helvetica,sans-Serif" font-size="10.00">+</text>
<text text-anchor="start" x="67" y="-150.5" font-family="Helvetica,sans-Serif" font-size="10.00">Personaje(String nombre)</text>
<text text-anchor="start" x="54.5" y="-134.5" font-family="Helvetica,sans-Serif" font-size="10.00">+</text>
<text text-anchor="start" x="67" y="-134.5" font-family="Helvetica,sans-Serif" font-size="10.00">String saluda()</text>
<text text-anchor="start" x="54.5" y="-118.5" font-family="Helvetica,sans-Serif" font-size="10.00">+</text>
<text text-anchor="start" x="67" y="-118.5" font-family="Helvetica,sans-Serif" font-size="10.00">String saluda(Actor nuevoActor)</text>
<text text-anchor="start" x="54.5" y="-102.5" font-family="Helvetica,sans-Serif" font-size="10.00">+</text>
<text text-anchor="start" x="67" y="-102.5" font-family="Helvetica,sans-Serif" font-size="10.00">String despide()</text>
<text text-anchor="start" x="54.5" y="-86.5" font-family="Helvetica,sans-Serif" font-size="10.00">+</text>
<text text-anchor="start" x="67" y="-86.5" font-family="Helvetica,sans-Serif" font-size="10.00">String despide(Actor exActor)</text>
<text text-anchor="start" x="54.5" y="-70.5" font-family="Helvetica,sans-Serif" font-size="10.00">+</text>
<text text-anchor="start" x="67" y="-70.5" font-family="Helvetica,sans-Serif" font-size="10.00">String getIdentificador()</text>
<text text-anchor="start" x="54.5" y="-54.5" font-family="Helvetica,sans-Serif" font-size="10.00">+</text>
<text text-anchor="start" x="67" y="-54.5" font-family="Helvetica,sans-Serif" font-size="10.00">double getCantidad()</text>
<text text-anchor="start" x="54.5" y="-38.5" font-family="Helvetica,sans-Serif" font-size="10.00">+</text>
<text text-anchor="start" x="67" y="-38.5" font-family="Helvetica,sans-Serif" font-size="10.00">double getCoeficiente()</text>
<text text-anchor="start" x="54.5" y="-22.5" font-family="Helvetica,sans-Serif" font-size="10.00">+</text>
<text text-anchor="start" x="67" y="-22.5" font-family="Helvetica,sans-Serif" font-size="10.00">DatosNómina getDatos()</text>
<text text-anchor="start" x="56" y="-6.5" font-family="Helvetica,sans-Serif" font-size="10.00">&#45;</text>
<text text-anchor="start" x="67" y="-6.5" font-family="Helvetica,sans-Serif" font-size="10.00">void anotaFrase()</text>
<polygon fill="#666666" stroke="#666666" points="48,-178 48,-178 213,-178 213,-178 48,-178"/>
<polygon fill="#666666" stroke="#666666" points="48,-162 48,-162 65,-162 65,-162 48,-162"/>
<polygon fill="#666666" stroke="#666666" points="65,-162 65,-162 213,-162 213,-162 65,-162"/>
<polygon fill="none" stroke="#666666" points="48,0 48,-196 213,-196 213,0 48,0"/>
</a>
</g>
</g>
<!-- Node2 -->
<g id="Node000002" class="node">
<title>Node2</title>
<g id="a_Node000002"><a xlink:href="classjcolonia_1_1daw2023_1_1teatrillo_1_1_actor.html" target="_top" xlink:title="Individuo del que almacenamos datos de identificación básicos: nombre e identificador.">
<polygon fill="white" stroke="none" points="145,-396 0,-396 0,-232 145,-232 145,-396"/>
<text text-anchor="start" x="5" y="-382.5" font-family="Helvetica,sans-Serif" font-size="10.00">jcolonia.daw2023.teatrillo.Actor</text>
<text text-anchor="start" x="8.5" y="-366.5" font-family="Helvetica,sans-Serif" font-size="10.00">&#45;</text>
<text text-anchor="start" x="20" y="-366.5" font-family="Helvetica,sans-Serif" font-size="10.00">String nombre</text>
<text text-anchor="start" x="8.5" y="-350.5" font-family="Helvetica,sans-Serif" font-size="10.00">&#45;</text>
<text text-anchor="start" x="20" y="-350.5" font-family="Helvetica,sans-Serif" font-size="10.00">int id</text>
<text text-anchor="start" x="8.5" y="-334.5" font-family="Helvetica,sans-Serif" font-size="10.00">&#45;</text>
<text text-anchor="start" x="20" y="-334.5" font-family="Helvetica,sans-Serif" font-size="10.00">static int númActores</text>
<text text-anchor="start" x="7" y="-318.5" font-family="Helvetica,sans-Serif" font-size="10.00">+</text>
<text text-anchor="start" x="20" y="-318.5" font-family="Helvetica,sans-Serif" font-size="10.00">Actor(String nombre)</text>
<text text-anchor="start" x="7" y="-302.5" font-family="Helvetica,sans-Serif" font-size="10.00">+</text>
<text text-anchor="start" x="20" y="-302.5" font-family="Helvetica,sans-Serif" font-size="10.00">String getNombre()</text>
<text text-anchor="start" x="7" y="-286.5" font-family="Helvetica,sans-Serif" font-size="10.00">+</text>
<text text-anchor="start" x="20" y="-286.5" font-family="Helvetica,sans-Serif" font-size="10.00">int getId()</text>
<text text-anchor="start" x="7" y="-270.5" font-family="Helvetica,sans-Serif" font-size="10.00">+</text>
<text text-anchor="start" x="20" y="-270.5" font-family="Helvetica,sans-Serif" font-size="10.00">String toString()</text>
<text text-anchor="start" x="7" y="-254.5" font-family="Helvetica,sans-Serif" font-size="10.00">+</text>
<text text-anchor="start" x="20" y="-254.5" font-family="Helvetica,sans-Serif" font-size="10.00">static int getNúmActores()</text>
<text text-anchor="start" x="7" y="-238.5" font-family="Helvetica,sans-Serif" font-size="10.00">~</text>
<text text-anchor="start" x="20" y="-238.5" font-family="Helvetica,sans-Serif" font-size="10.00">[static initializer]</text>
<polygon fill="#666666" stroke="#666666" points="0,-378 0,-378 145,-378 145,-378 0,-378"/>
<polygon fill="#666666" stroke="#666666" points="0,-330 0,-330 18,-330 18,-330 0,-330"/>
<polygon fill="#666666" stroke="#666666" points="18,-330 18,-330 145,-330 145,-330 18,-330"/>
<polygon fill="none" stroke="#666666" points="0,-232 0,-396 145,-396 145,-232 0,-232"/>
</a>
</g>
</g>
<!-- Node2&#45;&gt;Node1 -->
<g id="edge1_Node000001_Node000002" class="edge">
<title>Node2&#45;&gt;Node1</title>
<g id="a_edge1_Node000001_Node000002"><a xlink:title=" ">
<path fill="none" stroke="#63b8ff" d="M97.39,-221.17C99.66,-212.79 101.97,-204.28 104.25,-195.85"/>
<polygon fill="none" stroke="#63b8ff" points="94.06,-220.07 94.82,-230.63 100.82,-221.9 94.06,-220.07"/>
</a>
</g>
</g>
<!-- Node3 -->
<g id="Node000003" class="node">
<title>Node3</title>
<g id="a_Node000003"><a xlink:title=" ">
<polygon fill="white" stroke="none" points="213.5,-340 163.5,-340 163.5,-288 213.5,-288 213.5,-340"/>
<text text-anchor="start" x="168.25" y="-326.5" font-family="Helvetica,sans-Serif" font-size="10.00">Cotizable</text>
<text text-anchor="start" x="187" y="-310.5" font-family="Helvetica,sans-Serif" font-size="10.00"> </text>
<text text-anchor="start" x="187" y="-294.5" font-family="Helvetica,sans-Serif" font-size="10.00"> </text>
<polygon fill="#bfbfbf" stroke="#bfbfbf" points="163.5,-322 163.5,-322 213.5,-322 213.5,-322 163.5,-322"/>
<polygon fill="#bfbfbf" stroke="#bfbfbf" points="163.5,-306 163.5,-306 213.5,-306 213.5,-306 163.5,-306"/>
<polygon fill="none" stroke="#bfbfbf" points="163.5,-288 163.5,-340 213.5,-340 213.5,-288 163.5,-288"/>
</a>
</g>
</g>
<!-- Node3&#45;&gt;Node1 -->
<g id="edge2_Node000001_Node000003" class="edge">
<title>Node3&#45;&gt;Node1</title>
<g id="a_edge2_Node000001_Node000003"><a xlink:title=" ">
<path fill="none" stroke="#63b8ff" d="M178.75,-277.04C172.67,-254.59 164.53,-224.54 156.66,-195.53"/>
<polygon fill="none" stroke="#63b8ff" points="175.34,-277.84 181.34,-286.57 182.1,-276 175.34,-277.84"/>
</a>
</g>
</g>
</g>
</svg>
</svg>

<style type='text/css'>
<![CDATA[
[data-mouse-over-selected='false'] { opacity: 0.7; }
[data-mouse-over-selected='true']  { opacity: 1.0; }
]]>
</style>
<script type="application/ecmascript"><![CDATA[
document.addEventListener('DOMContentLoaded', (event) => {
  highlightEdges();
  highlightAdjacentNodes();
});
]]></script>
</svg>
