<?xml version="1.0" encoding="UTF-8" standalone="no"?>
<!DOCTYPE svg PUBLIC "-//W3C//DTD SVG 1.1//EN"
 "http://www.w3.org/Graphics/SVG/1.1/DTD/svg11.dtd">
<!-- Generated by graphviz version 9.0.0 (20230911.1827)
 -->
<!-- Title: jcolonia.daw2023.teatrillo.Actor Pages: 1 -->
<svg width="173pt" height="404pt"
 viewBox="0.00 0.00 173.00 404.00" xmlns="http://www.w3.org/2000/svg" xmlns:xlink="http://www.w3.org/1999/xlink">
<g id="graph0" class="graph" transform="scale(1 1) rotate(0) translate(4 400)">
<title>jcolonia.daw2023.teatrillo.Actor</title>
<!-- Node1 -->
<g id="Node000001" class="node">
<title>Node1</title>
<g id="a_Node000001"><a xlink:title="Individuo del que almacenamos datos de identificación básicos: nombre e identificador.">
<polygon fill="#999999" stroke="none" points="155,-396 10,-396 10,-232 155,-232 155,-396"/>
<text text-anchor="start" x="15" y="-382.5" font-family="Helvetica,sans-Serif" font-size="10.00">jcolonia.daw2023.teatrillo.Actor</text>
<text text-anchor="start" x="18.5" y="-366.5" font-family="Helvetica,sans-Serif" font-size="10.00">&#45;</text>
<text text-anchor="start" x="30" y="-366.5" font-family="Helvetica,sans-Serif" font-size="10.00">String nombre</text>
<text text-anchor="start" x="18.5" y="-350.5" font-family="Helvetica,sans-Serif" font-size="10.00">&#45;</text>
<text text-anchor="start" x="30" y="-350.5" font-family="Helvetica,sans-Serif" font-size="10.00">int id</text>
<text text-anchor="start" x="18.5" y="-334.5" font-family="Helvetica,sans-Serif" font-size="10.00">&#45;</text>
<text text-anchor="start" x="30" y="-334.5" font-family="Helvetica,sans-Serif" font-size="10.00">static int númActores</text>
<text text-anchor="start" x="17" y="-318.5" font-family="Helvetica,sans-Serif" font-size="10.00">+</text>
<text text-anchor="start" x="30" y="-318.5" font-family="Helvetica,sans-Serif" font-size="10.00">Actor(String nombre)</text>
<text text-anchor="start" x="17" y="-302.5" font-family="Helvetica,sans-Serif" font-size="10.00">+</text>
<text text-anchor="start" x="30" y="-302.5" font-family="Helvetica,sans-Serif" font-size="10.00">String getNombre()</text>
<text text-anchor="start" x="17" y="-286.5" font-family="Helvetica,sans-Serif" font-size="10.00">+</text>
<text text-anchor="start" x="30" y="-286.5" font-family="Helvetica,sans-Serif" font-size="10.00">int getId()</text>
<text text-anchor="start" x="17" y="-270.5" font-family="Helvetica,sans-Serif" font-size="10.00">+</text>
<text text-anchor="start" x="30" y="-270.5" font-family="Helvetica,sans-Serif" font-size="10.00">String toString()</text>
<text text-anchor="start" x="17" y="-254.5" font-family="Helvetica,sans-Serif" font-size="10.00">+</text>
<text text-anchor="start" x="30" y="-254.5" font-family="Helvetica,sans-Serif" font-size="10.00">static int getNúmActores()</text>
<text text-anchor="start" x="17" y="-238.5" font-family="Helvetica,sans-Serif" font-size="10.00">~</text>
<text text-anchor="start" x="30" y="-238.5" font-family="Helvetica,sans-Serif" font-size="10.00">[static initializer]</text>
<polygon fill="#666666" stroke="#666666" points="10,-378 10,-378 155,-378 155,-378 10,-378"/>
<polygon fill="#666666" stroke="#666666" points="10,-330 10,-330 28,-330 28,-330 10,-330"/>
<polygon fill="#666666" stroke="#666666" points="28,-330 28,-330 155,-330 155,-330 28,-330"/>
<polygon fill="none" stroke="#666666" points="10,-232 10,-396 155,-396 155,-232 10,-232"/>
</a>
</g>
</g>
<!-- Node2 -->
<g id="Node000002" class="node">
<title>Node2</title>
<g id="a_Node000002"><a xlink:href="classjcolonia_1_1daw2023_1_1teatrillo_1_1_personaje.html" target="_top" xlink:title="Sujeto que interactúa saludando al resto de personajes, contabilizando el número de frases.">
<polygon fill="white" stroke="none" points="165,-196 0,-196 0,0 165,0 165,-196"/>
<text text-anchor="start" x="4.88" y="-182.5" font-family="Helvetica,sans-Serif" font-size="10.00">jcolonia.daw2023.teatrillo.Personaje</text>
<text text-anchor="start" x="8" y="-166.5" font-family="Helvetica,sans-Serif" font-size="10.00">&#45;</text>
<text text-anchor="start" x="19" y="-166.5" font-family="Helvetica,sans-Serif" font-size="10.00">int númFrases</text>
<text text-anchor="start" x="6.5" y="-150.5" font-family="Helvetica,sans-Serif" font-size="10.00">+</text>
<text text-anchor="start" x="19" y="-150.5" font-family="Helvetica,sans-Serif" font-size="10.00">Personaje(String nombre)</text>
<text text-anchor="start" x="6.5" y="-134.5" font-family="Helvetica,sans-Serif" font-size="10.00">+</text>
<text text-anchor="start" x="19" y="-134.5" font-family="Helvetica,sans-Serif" font-size="10.00">String saluda()</text>
<text text-anchor="start" x="6.5" y="-118.5" font-family="Helvetica,sans-Serif" font-size="10.00">+</text>
<text text-anchor="start" x="19" y="-118.5" font-family="Helvetica,sans-Serif" font-size="10.00">String saluda(Actor nuevoActor)</text>
<text text-anchor="start" x="6.5" y="-102.5" font-family="Helvetica,sans-Serif" font-size="10.00">+</text>
<text text-anchor="start" x="19" y="-102.5" font-family="Helvetica,sans-Serif" font-size="10.00">String despide()</text>
<text text-anchor="start" x="6.5" y="-86.5" font-family="Helvetica,sans-Serif" font-size="10.00">+</text>
<text text-anchor="start" x="19" y="-86.5" font-family="Helvetica,sans-Serif" font-size="10.00">String despide(Actor exActor)</text>
<text text-anchor="start" x="6.5" y="-70.5" font-family="Helvetica,sans-Serif" font-size="10.00">+</text>
<text text-anchor="start" x="19" y="-70.5" font-family="Helvetica,sans-Serif" font-size="10.00">String getIdentificador()</text>
<text text-anchor="start" x="6.5" y="-54.5" font-family="Helvetica,sans-Serif" font-size="10.00">+</text>
<text text-anchor="start" x="19" y="-54.5" font-family="Helvetica,sans-Serif" font-size="10.00">double getCantidad()</text>
<text text-anchor="start" x="6.5" y="-38.5" font-family="Helvetica,sans-Serif" font-size="10.00">+</text>
<text text-anchor="start" x="19" y="-38.5" font-family="Helvetica,sans-Serif" font-size="10.00">double getCoeficiente()</text>
<text text-anchor="start" x="6.5" y="-22.5" font-family="Helvetica,sans-Serif" font-size="10.00">+</text>
<text text-anchor="start" x="19" y="-22.5" font-family="Helvetica,sans-Serif" font-size="10.00">DatosNómina getDatos()</text>
<text text-anchor="start" x="8" y="-6.5" font-family="Helvetica,sans-Serif" font-size="10.00">&#45;</text>
<text text-anchor="start" x="19" y="-6.5" font-family="Helvetica,sans-Serif" font-size="10.00">void anotaFrase()</text>
<polygon fill="#666666" stroke="#666666" points="0,-178 0,-178 165,-178 165,-178 0,-178"/>
<polygon fill="#666666" stroke="#666666" points="0,-162 0,-162 17,-162 17,-162 0,-162"/>
<polygon fill="#666666" stroke="#666666" points="17,-162 17,-162 165,-162 165,-162 17,-162"/>
<polygon fill="none" stroke="#666666" points="0,0 0,-196 165,-196 165,0 0,0"/>
</a>
</g>
</g>
<!-- Node1&#45;&gt;Node2 -->
<g id="edge1_Node000001_Node000002" class="edge">
<title>Node1&#45;&gt;Node2</title>
<g id="a_edge1_Node000001_Node000002"><a xlink:title=" ">
<path fill="none" stroke="#63b8ff" d="M82.5,-220.6C82.5,-212.4 82.5,-204.09 82.5,-195.85"/>
<polygon fill="none" stroke="#63b8ff" points="79,-220.58 82.5,-230.58 86,-220.58 79,-220.58"/>
</a>
</g>
</g>
</g>
</svg>
