<?xml version="1.0" encoding="UTF-8" standalone="no"?>
<!DOCTYPE svg PUBLIC "-//W3C//DTD SVG 1.1//EN"
 "http://www.w3.org/Graphics/SVG/1.1/DTD/svg11.dtd">
<!-- Generated by graphviz version 9.0.0 (20230911.1827)
 -->
<!-- Title: jcolonia.daw2023.teatrillo.Teatrillo Pages: 1 -->
<svg width="164pt" height="60pt"
 viewBox="0.00 0.00 164.00 60.00" xmlns="http://www.w3.org/2000/svg" xmlns:xlink="http://www.w3.org/1999/xlink">
<g id="graph0" class="graph" transform="scale(1 1) rotate(0) translate(4 56)">
<title>jcolonia.daw2023.teatrillo.Teatrillo</title>
<!-- Node1 -->
<g id="Node000001" class="node">
<title>Node1</title>
<g id="a_Node000001"><a xlink:title=" ">
<polygon fill="#999999" stroke="none" points="156,-52 0,-52 0,0 156,0 156,-52"/>
<text text-anchor="start" x="5.25" y="-38.5" font-family="Helvetica,sans-Serif" font-size="10.00">jcolonia.daw2023.teatrillo.Teatrillo</text>
<text text-anchor="start" x="4" y="-22.5" font-family="Helvetica,sans-Serif" font-size="10.00">+</text>
<text text-anchor="start" x="14" y="-22.5" font-family="Helvetica,sans-Serif" font-size="10.00">static final String[] listaNombres</text>
<text text-anchor="start" x="4" y="-6.5" font-family="Helvetica,sans-Serif" font-size="10.00">+</text>
<text text-anchor="start" x="14" y="-6.5" font-family="Helvetica,sans-Serif" font-size="10.00">static void main(String[] args)</text>
<polygon fill="#666666" stroke="#666666" points="0,-34 0,-34 156,-34 156,-34 0,-34"/>
<polygon fill="#666666" stroke="#666666" points="0,-18 0,-18 12,-18 12,-18 0,-18"/>
<polygon fill="#666666" stroke="#666666" points="12,-18 12,-18 156,-18 156,-18 12,-18"/>
<polygon fill="none" stroke="#666666" points="0,0 0,-52 156,-52 156,0 0,0"/>
</a>
</g>
</g>
</g>
</svg>
