<?xml version="1.0" encoding="UTF-8" standalone="no"?>
<!DOCTYPE svg PUBLIC "-//W3C//DTD SVG 1.1//EN"
 "http://www.w3.org/Graphics/SVG/1.1/DTD/svg11.dtd">
<!-- Generated by graphviz version 9.0.0 (20230911.1827)
 -->
<!-- Title: jcolonia.daw2023.teatrillo.Guion Pages: 1 -->
<!--zoomable 537 -->

<svg id="main" version="1.1" xmlns="http://www.w3.org/2000/svg" xmlns:xlink="http://www.w3.org/1999/xlink" xml:space="preserve" onload="init(evt)">
<style type="text/css"><![CDATA[
.node, .edge {opacity: 0.7;}
.node.selected, .edge.selected {opacity: 1;}
.edge:hover path { stroke: red; }
.edge:hover polygon { stroke: red; fill: red; }
]]></style>

<defs>
  <circle id="rim" cx="0" cy="0" r="7"/>
  <circle id="rim2" cx="0" cy="0" r="3.5"/>
  <g id="zoomPlus">
    <use xlink:href="#rim" fill="#404040"><set attributeName="fill" to="#808080" begin="zoomplus.mouseover" end="zoomplus.mouseout"/></use>
    <path d="M-4,0h8M0,-4v8" fill="none" stroke="white" stroke-width="1.5" pointer-events="none"/>
  </g>
  <g id="zoomMin">
    <use xlink:href="#rim" fill="#404040"><set attributeName="fill" to="#808080" begin="zoomminus.mouseover" end="zoomminus.mouseout"/></use>
    <path d="M-4,0h8" fill="none" stroke="white" stroke-width="1.5" pointer-events="none"/>
  </g>
  <g id="arrowUp" transform="translate(30 24)">
    <use xlink:href="#rim"/>
    <path pointer-events="none" fill="none" stroke="white" stroke-width="1.5" d="M0,-3.0v7 M-2.5,-0.5L0,-3.0L2.5,-0.5"/>
  </g>
  <g id="arrowRight" transform="rotate(90) translate(36 -43)">
    <use xlink:href="#rim"/>
    <path pointer-events="none" fill="none" stroke="white" stroke-width="1.5" d="M0,-3.0v7 M-2.5,-0.5L0,-3.0L2.5,-0.5"/>
  </g>
  <g id="arrowDown" transform="rotate(180) translate(-30 -48)">
    <use xlink:href="#rim"/>
    <path pointer-events="none" fill="none" stroke="white" stroke-width="1.5" d="M0,-3.0v7 M-2.5,-0.5L0,-3.0L2.5,-0.5"/>
  </g>
  <g id="arrowLeft" transform="rotate(270) translate(-36 17)">
    <use xlink:href="#rim"/>
    <path pointer-events="none" fill="none" stroke="white" stroke-width="1.5" d="M0,-3.0v7 M-2.5,-0.5L0,-3.0L2.5,-0.5"/>
  </g>
  <g id="resetDef">
    <use xlink:href="#rim2" fill="#404040"><set attributeName="fill" to="#808080" begin="reset.mouseover" end="reset.mouseout"/></use>
  </g>
</defs>
<script type="application/ecmascript">
var viewWidth = 227;
var viewHeight = 537;
var sectionId = 'dynsection-0';
</script>
<script type="application/ecmascript" xlink:href="svg.min.js"/>
<svg id="graph" class="graph">
<g id="viewport">
<title>jcolonia.daw2023.teatrillo.Guion</title>
<!-- Node1 -->
<g id="Node000001" class="node">
<title>Node1</title>
<g id="a_Node000001"><a xlink:title="Ensayo/comprobación de funcionalidad de las interfaces.">
<polygon fill="#999999" stroke="none" points="219,-84 42,-84 42,0 219,0 219,-84"/>
<text text-anchor="start" x="61.88" y="-70.5" font-family="Helvetica,sans-Serif" font-size="10.00">jcolonia.daw2023.teatrillo.Guion</text>
<text text-anchor="start" x="46" y="-54.5" font-family="Helvetica,sans-Serif" font-size="10.00">+</text>
<text text-anchor="start" x="56" y="-54.5" font-family="Helvetica,sans-Serif" font-size="10.00">static final String[] LISTA_ORIGINAL</text>
<text text-anchor="start" x="46" y="-38.5" font-family="Helvetica,sans-Serif" font-size="10.00">+</text>
<text text-anchor="start" x="56" y="-38.5" font-family="Helvetica,sans-Serif" font-size="10.00">Guion(String[] nombres)</text>
<text text-anchor="start" x="46" y="-22.5" font-family="Helvetica,sans-Serif" font-size="10.00">+</text>
<text text-anchor="start" x="56" y="-22.5" font-family="Helvetica,sans-Serif" font-size="10.00">void simularConversación()</text>
<text text-anchor="start" x="46" y="-6.5" font-family="Helvetica,sans-Serif" font-size="10.00">+</text>
<text text-anchor="start" x="56" y="-6.5" font-family="Helvetica,sans-Serif" font-size="10.00">static void main(String[] argumentos)</text>
<polygon fill="#666666" stroke="#666666" points="42,-66 42,-66 219,-66 219,-66 42,-66"/>
<polygon fill="#666666" stroke="#666666" points="42,-50 42,-50 54,-50 54,-50 42,-50"/>
<polygon fill="#666666" stroke="#666666" points="54,-50 54,-50 219,-50 219,-50 54,-50"/>
<polygon fill="none" stroke="#666666" points="42,0 42,-84 219,-84 219,0 42,0"/>
</a>
</g>
</g>
<!-- Node2 -->
<g id="Node000002" class="node">
<title>Node2</title>
<g id="a_Node000002"><a xlink:href="classjcolonia_1_1daw2023_1_1teatrillo_1_1_personaje.html" target="_top" xlink:title="Sujeto que interactúa saludando al resto de personajes, contabilizando el número de frases.">
<polygon fill="white" stroke="none" points="213,-328 48,-328 48,-132 213,-132 213,-328"/>
<text text-anchor="start" x="52.88" y="-314.5" font-family="Helvetica,sans-Serif" font-size="10.00">jcolonia.daw2023.teatrillo.Personaje</text>
<text text-anchor="start" x="56" y="-298.5" font-family="Helvetica,sans-Serif" font-size="10.00">&#45;</text>
<text text-anchor="start" x="67" y="-298.5" font-family="Helvetica,sans-Serif" font-size="10.00">int númFrases</text>
<text text-anchor="start" x="54.5" y="-282.5" font-family="Helvetica,sans-Serif" font-size="10.00">+</text>
<text text-anchor="start" x="67" y="-282.5" font-family="Helvetica,sans-Serif" font-size="10.00">Personaje(String nombre)</text>
<text text-anchor="start" x="54.5" y="-266.5" font-family="Helvetica,sans-Serif" font-size="10.00">+</text>
<text text-anchor="start" x="67" y="-266.5" font-family="Helvetica,sans-Serif" font-size="10.00">String saluda()</text>
<text text-anchor="start" x="54.5" y="-250.5" font-family="Helvetica,sans-Serif" font-size="10.00">+</text>
<text text-anchor="start" x="67" y="-250.5" font-family="Helvetica,sans-Serif" font-size="10.00">String saluda(Actor nuevoActor)</text>
<text text-anchor="start" x="54.5" y="-234.5" font-family="Helvetica,sans-Serif" font-size="10.00">+</text>
<text text-anchor="start" x="67" y="-234.5" font-family="Helvetica,sans-Serif" font-size="10.00">String despide()</text>
<text text-anchor="start" x="54.5" y="-218.5" font-family="Helvetica,sans-Serif" font-size="10.00">+</text>
<text text-anchor="start" x="67" y="-218.5" font-family="Helvetica,sans-Serif" font-size="10.00">String despide(Actor exActor)</text>
<text text-anchor="start" x="54.5" y="-202.5" font-family="Helvetica,sans-Serif" font-size="10.00">+</text>
<text text-anchor="start" x="67" y="-202.5" font-family="Helvetica,sans-Serif" font-size="10.00">String getIdentificador()</text>
<text text-anchor="start" x="54.5" y="-186.5" font-family="Helvetica,sans-Serif" font-size="10.00">+</text>
<text text-anchor="start" x="67" y="-186.5" font-family="Helvetica,sans-Serif" font-size="10.00">double getCantidad()</text>
<text text-anchor="start" x="54.5" y="-170.5" font-family="Helvetica,sans-Serif" font-size="10.00">+</text>
<text text-anchor="start" x="67" y="-170.5" font-family="Helvetica,sans-Serif" font-size="10.00">double getCoeficiente()</text>
<text text-anchor="start" x="54.5" y="-154.5" font-family="Helvetica,sans-Serif" font-size="10.00">+</text>
<text text-anchor="start" x="67" y="-154.5" font-family="Helvetica,sans-Serif" font-size="10.00">DatosNómina getDatos()</text>
<text text-anchor="start" x="56" y="-138.5" font-family="Helvetica,sans-Serif" font-size="10.00">&#45;</text>
<text text-anchor="start" x="67" y="-138.5" font-family="Helvetica,sans-Serif" font-size="10.00">void anotaFrase()</text>
<polygon fill="#666666" stroke="#666666" points="48,-310 48,-310 213,-310 213,-310 48,-310"/>
<polygon fill="#666666" stroke="#666666" points="48,-294 48,-294 65,-294 65,-294 48,-294"/>
<polygon fill="#666666" stroke="#666666" points="65,-294 65,-294 213,-294 213,-294 65,-294"/>
<polygon fill="none" stroke="#666666" points="48,-132 48,-328 213,-328 213,-132 48,-132"/>
</a>
</g>
</g>
<!-- Node2&#45;&gt;Node1 -->
<g id="edge1_Node000001_Node000002" class="edge">
<title>Node2&#45;&gt;Node1</title>
<g id="a_edge1_Node000001_Node000002"><a xlink:title=" ">
<path fill="none" stroke="#63b8ff" d="M130.5,-132.19C130.5,-119.88 130.5,-107.66 130.5,-96.39"/>
<polygon fill="none" stroke="#63b8ff" points="130.5,-96.56 126.5,-90.56 130.5,-84.56 134.5,-90.56 130.5,-96.56"/>
</a>
</g>
<text text-anchor="middle" x="150.75" y="-104.5" font-family="Helvetica,sans-Serif" font-size="10.00" fill="grey"> &#45;créditos</text>
</g>
<!-- Node3 -->
<g id="Node000003" class="node">
<title>Node3</title>
<g id="a_Node000003"><a xlink:href="classjcolonia_1_1daw2023_1_1teatrillo_1_1_actor.html" target="_top" xlink:title="Individuo del que almacenamos datos de identificación básicos: nombre e identificador.">
<polygon fill="white" stroke="none" points="145,-529 0,-529 0,-365 145,-365 145,-529"/>
<text text-anchor="start" x="5" y="-515.5" font-family="Helvetica,sans-Serif" font-size="10.00">jcolonia.daw2023.teatrillo.Actor</text>
<text text-anchor="start" x="8.5" y="-499.5" font-family="Helvetica,sans-Serif" font-size="10.00">&#45;</text>
<text text-anchor="start" x="20" y="-499.5" font-family="Helvetica,sans-Serif" font-size="10.00">String nombre</text>
<text text-anchor="start" x="8.5" y="-483.5" font-family="Helvetica,sans-Serif" font-size="10.00">&#45;</text>
<text text-anchor="start" x="20" y="-483.5" font-family="Helvetica,sans-Serif" font-size="10.00">int id</text>
<text text-anchor="start" x="8.5" y="-467.5" font-family="Helvetica,sans-Serif" font-size="10.00">&#45;</text>
<text text-anchor="start" x="20" y="-467.5" font-family="Helvetica,sans-Serif" font-size="10.00">static int númActores</text>
<text text-anchor="start" x="7" y="-451.5" font-family="Helvetica,sans-Serif" font-size="10.00">+</text>
<text text-anchor="start" x="20" y="-451.5" font-family="Helvetica,sans-Serif" font-size="10.00">Actor(String nombre)</text>
<text text-anchor="start" x="7" y="-435.5" font-family="Helvetica,sans-Serif" font-size="10.00">+</text>
<text text-anchor="start" x="20" y="-435.5" font-family="Helvetica,sans-Serif" font-size="10.00">String getNombre()</text>
<text text-anchor="start" x="7" y="-419.5" font-family="Helvetica,sans-Serif" font-size="10.00">+</text>
<text text-anchor="start" x="20" y="-419.5" font-family="Helvetica,sans-Serif" font-size="10.00">int getId()</text>
<text text-anchor="start" x="7" y="-403.5" font-family="Helvetica,sans-Serif" font-size="10.00">+</text>
<text text-anchor="start" x="20" y="-403.5" font-family="Helvetica,sans-Serif" font-size="10.00">String toString()</text>
<text text-anchor="start" x="7" y="-387.5" font-family="Helvetica,sans-Serif" font-size="10.00">+</text>
<text text-anchor="start" x="20" y="-387.5" font-family="Helvetica,sans-Serif" font-size="10.00">static int getNúmActores()</text>
<text text-anchor="start" x="7" y="-371.5" font-family="Helvetica,sans-Serif" font-size="10.00">~</text>
<text text-anchor="start" x="20" y="-371.5" font-family="Helvetica,sans-Serif" font-size="10.00">[static initializer]</text>
<polygon fill="#666666" stroke="#666666" points="0,-511 0,-511 145,-511 145,-511 0,-511"/>
<polygon fill="#666666" stroke="#666666" points="0,-463 0,-463 18,-463 18,-463 0,-463"/>
<polygon fill="#666666" stroke="#666666" points="18,-463 18,-463 145,-463 145,-463 18,-463"/>
<polygon fill="none" stroke="#666666" points="0,-365 0,-529 145,-529 145,-365 0,-365"/>
</a>
</g>
</g>
<!-- Node3&#45;&gt;Node2 -->
<g id="edge2_Node000002_Node000003" class="edge">
<title>Node3&#45;&gt;Node2</title>
<g id="a_edge2_Node000002_Node000003"><a xlink:title=" ">
<path fill="none" stroke="#63b8ff" d="M97.29,-354.1C99.64,-345.4 102.02,-336.57 104.38,-327.83"/>
<polygon fill="none" stroke="#63b8ff" points="93.96,-353 94.74,-363.56 100.72,-354.82 93.96,-353"/>
</a>
</g>
</g>
<!-- Node4 -->
<g id="Node000004" class="node">
<title>Node4</title>
<g id="a_Node000004"><a xlink:title=" ">
<polygon fill="white" stroke="none" points="213.5,-473 163.5,-473 163.5,-421 213.5,-421 213.5,-473"/>
<text text-anchor="start" x="168.25" y="-459.5" font-family="Helvetica,sans-Serif" font-size="10.00">Cotizable</text>
<text text-anchor="start" x="187" y="-443.5" font-family="Helvetica,sans-Serif" font-size="10.00"> </text>
<text text-anchor="start" x="187" y="-427.5" font-family="Helvetica,sans-Serif" font-size="10.00"> </text>
<polygon fill="#bfbfbf" stroke="#bfbfbf" points="163.5,-455 163.5,-455 213.5,-455 213.5,-455 163.5,-455"/>
<polygon fill="#bfbfbf" stroke="#bfbfbf" points="163.5,-439 163.5,-439 213.5,-439 213.5,-439 163.5,-439"/>
<polygon fill="none" stroke="#bfbfbf" points="163.5,-421 163.5,-473 213.5,-473 213.5,-421 163.5,-421"/>
</a>
</g>
</g>
<!-- Node4&#45;&gt;Node2 -->
<g id="edge3_Node000002_Node000004" class="edge">
<title>Node4&#45;&gt;Node2</title>
<g id="a_edge3_Node000002_Node000004"><a xlink:title=" ">
<path fill="none" stroke="#63b8ff" d="M178.86,-410.27C172.76,-387.64 164.55,-357.22 156.63,-327.86"/>
<polygon fill="none" stroke="#63b8ff" points="175.47,-411.13 181.45,-419.88 182.23,-409.31 175.47,-411.13"/>
</a>
</g>
</g>
</g>
</svg>

<g id="navigator" transform="translate(0 0)" fill="#404254">
  <rect fill="#f2f5e9" fill-opacity="0.5" stroke="#606060" stroke-width=".5" x="0" y="0" width="60" height="60"/>
  <use id="zoomplus" xlink:href="#zoomPlus" x="17" y="9" onmousedown="handleZoom(evt,'in')"/>
  <use id="zoomminus" xlink:href="#zoomMin" x="42" y="9" onmousedown="handleZoom(evt,'out')"/>
  <use id="reset" xlink:href="#resetDef" x="30" y="36" onmousedown="handleReset()"/>
   <use id="arrowup" xlink:href="#arrowUp" x="0" y="0" onmousedown="handlePan(0,-1)"/>
  <use id="arrowright" xlink:href="#arrowRight" x="0" y="0" onmousedown="handlePan(1,0)"/>
  <use id="arrowdown" xlink:href="#arrowDown" x="0" y="0" onmousedown="handlePan(0,1)"/>
  <use id="arrowleft" xlink:href="#arrowLeft" x="0" y="0" onmousedown="handlePan(-1,0)"/>
</g>
<svg viewBox="0 0 15 15" width="100%" height="30px" preserveAspectRatio="xMaxYMin meet">
 <g id="arrow_out" transform="scale(0.3 0.3)">
  <a xlink:href="classjcolonia_1_1daw2023_1_1teatrillo_1_1_guion__coll__graph_org.svg" target="_base">
   <rect id="button" ry="5" rx="5" y="6" x="6" height="38" width="38"
        fill="#f2f5e9" fill-opacity="0.5" stroke="#606060" stroke-width="1.0"/>
   <path id="arrow"
     d="M 11.500037,31.436501 C 11.940474,20.09759 22.043105,11.32322 32.158766,21.979434 L 37.068811,17.246167 C 37.068811,17.246167 37.088388,32 37.088388,32 L 22.160133,31.978069 C 22.160133,31.978069 26.997745,27.140456 26.997745,27.140456 C 18.528582,18.264221 13.291696,25.230495 11.500037,31.436501 z"
     style="fill:#404040;"/>
  </a>
 </g>
</svg>

<style type='text/css'>
<![CDATA[
[data-mouse-over-selected='false'] { opacity: 0.7; }
[data-mouse-over-selected='true']  { opacity: 1.0; }
]]>
</style>
<script type="application/ecmascript"><![CDATA[
document.addEventListener('DOMContentLoaded', (event) => {
  highlightEdges();
  highlightAdjacentNodes();
});
]]></script>
</svg>
