<?xml version="1.0" encoding="UTF-8" standalone="no"?>
<!DOCTYPE svg PUBLIC "-//W3C//DTD SVG 1.1//EN"
 "http://www.w3.org/Graphics/SVG/1.1/DTD/svg11.dtd">
<!-- Generated by graphviz version 9.0.0 (20230911.1827)
 -->
<!-- Title: jcolonia.daw2023.teatrillo.gestión.Nominilla Pages: 1 -->
<svg width="381pt" height="256pt"
 viewBox="0.00 0.00 381.00 256.00" xmlns="http://www.w3.org/2000/svg" xmlns:xlink="http://www.w3.org/1999/xlink">

<svg id="main" version="1.1" xmlns="http://www.w3.org/2000/svg" xmlns:xlink="http://www.w3.org/1999/xlink" xml:space="preserve" onload="init(evt)">
<style type="text/css"><![CDATA[
.node, .edge {opacity: 0.7;}
.node.selected, .edge.selected {opacity: 1;}
.edge:hover path { stroke: red; }
.edge:hover polygon { stroke: red; fill: red; }
]]></style>
<script type="application/ecmascript" xlink:href="svg.min.js"/>
<svg id="graph" class="graph">
<g id="graph0" class="graph" transform="scale(1 1) rotate(0) translate(4 252)">
<title>jcolonia.daw2023.teatrillo.gestión.Nominilla</title>
<!-- Node1 -->
<g id="Node000001" class="node">
<title>Node1</title>
<g id="a_Node000001"><a xlink:title="Gestión, contabilidad sobre una colección de sujetos con distintos valores de trabajo o participación...">
<polygon fill="#999999" stroke="none" points="294.5,-68 78.5,-68 78.5,0 294.5,0 294.5,-68"/>
<text text-anchor="start" x="93.5" y="-54.5" font-family="Helvetica,sans-Serif" font-size="10.00">jcolonia.daw2023.teatrillo.gestión.Nominilla</text>
<text text-anchor="start" x="84" y="-38.5" font-family="Helvetica,sans-Serif" font-size="10.00">&#45;</text>
<text text-anchor="start" x="92.5" y="-38.5" font-family="Helvetica,sans-Serif" font-size="10.00">static final String FORMATO_LÍNEA_BÁSICO</text>
<text text-anchor="start" x="82.5" y="-22.5" font-family="Helvetica,sans-Serif" font-size="10.00">+</text>
<text text-anchor="start" x="92.5" y="-22.5" font-family="Helvetica,sans-Serif" font-size="10.00">Nominilla(Cotizable[] listaOriginal)</text>
<text text-anchor="start" x="82.5" y="-6.5" font-family="Helvetica,sans-Serif" font-size="10.00">+</text>
<text text-anchor="start" x="92.5" y="-6.5" font-family="Helvetica,sans-Serif" font-size="10.00">String toString()</text>
<polygon fill="#666666" stroke="#666666" points="78.5,-50 78.5,-50 294.5,-50 294.5,-50 78.5,-50"/>
<polygon fill="#666666" stroke="#666666" points="78.5,-34 78.5,-34 90.5,-34 90.5,-34 78.5,-34"/>
<polygon fill="#666666" stroke="#666666" points="90.5,-34 90.5,-34 294.5,-34 294.5,-34 90.5,-34"/>
<polygon fill="none" stroke="#666666" points="78.5,0 78.5,-68 294.5,-68 294.5,0 78.5,0"/>
</a>
</g>
</g>
<!-- Node2 -->
<g id="Node000002" class="node">
<title>Node2</title>
<g id="a_Node000002"><a xlink:href="interfacejcolonia_1_1daw2023_1_1teatrillo_1_1gesti_xC3_xB3n_1_1_cotizable.html" target="_top" xlink:title="Sujeto compatible con Nominilla.">
<polygon fill="white" stroke="none" points="373,-248 0,-248 0,-116 373,-116 373,-248"/>
<text text-anchor="start" x="93.12" y="-234.5" font-family="Helvetica,sans-Serif" font-size="10.00">jcolonia.daw2023.teatrillo.gestión.Cotizable</text>
<text text-anchor="start" x="4" y="-218.5" font-family="Helvetica,sans-Serif" font-size="10.00">+</text>
<text text-anchor="start" x="14" y="-218.5" font-family="Helvetica,sans-Serif" font-size="10.00">final double PRECIO</text>
<text text-anchor="start" x="4" y="-202.5" font-family="Helvetica,sans-Serif" font-size="10.00">+</text>
<text text-anchor="start" x="14" y="-202.5" font-family="Helvetica,sans-Serif" font-size="10.00">record DatosNómina(String id, String nombre, double cantidad, double coeficiente)</text>
<text text-anchor="start" x="4" y="-186.5" font-family="Helvetica,sans-Serif" font-size="10.00">+</text>
<text text-anchor="start" x="14" y="-186.5" font-family="Helvetica,sans-Serif" font-size="10.00">String getIdentificador()</text>
<text text-anchor="start" x="4" y="-170.5" font-family="Helvetica,sans-Serif" font-size="10.00">+</text>
<text text-anchor="start" x="14" y="-170.5" font-family="Helvetica,sans-Serif" font-size="10.00">String getNombre()</text>
<text text-anchor="start" x="4" y="-154.5" font-family="Helvetica,sans-Serif" font-size="10.00">+</text>
<text text-anchor="start" x="14" y="-154.5" font-family="Helvetica,sans-Serif" font-size="10.00">double getCantidad()</text>
<text text-anchor="start" x="4" y="-138.5" font-family="Helvetica,sans-Serif" font-size="10.00">+</text>
<text text-anchor="start" x="14" y="-138.5" font-family="Helvetica,sans-Serif" font-size="10.00">double getCoeficiente()</text>
<text text-anchor="start" x="4" y="-122.5" font-family="Helvetica,sans-Serif" font-size="10.00">+</text>
<text text-anchor="start" x="14" y="-122.5" font-family="Helvetica,sans-Serif" font-size="10.00">DatosNómina getDatos()</text>
<polygon fill="#666666" stroke="#666666" points="0,-230 0,-230 373,-230 373,-230 0,-230"/>
<polygon fill="#666666" stroke="#666666" points="0,-214 0,-214 12,-214 12,-214 0,-214"/>
<polygon fill="#666666" stroke="#666666" points="12,-214 12,-214 373,-214 373,-214 12,-214"/>
<polygon fill="none" stroke="#666666" points="0,-116 0,-248 373,-248 373,-116 0,-116"/>
</a>
</g>
</g>
<!-- Node2&#45;&gt;Node1 -->
<g id="edge1_Node000001_Node000002" class="edge">
<title>Node2&#45;&gt;Node1</title>
<g id="a_edge1_Node000001_Node000002"><a xlink:title=" ">
<path fill="none" stroke="#63b8ff" d="M186.5,-116.11C186.5,-104.07 186.5,-91.73 186.5,-80.42"/>
<polygon fill="none" stroke="#63b8ff" points="186.5,-80.61 182.5,-74.61 186.5,-68.61 190.5,-74.61 186.5,-80.61"/>
</a>
</g>
<text text-anchor="middle" x="215" y="-88.5" font-family="Helvetica,sans-Serif" font-size="10.00" fill="grey"> &#45;listaSujetos</text>
</g>
</g>
</svg>
</svg>

<style type='text/css'>
<![CDATA[
[data-mouse-over-selected='false'] { opacity: 0.7; }
[data-mouse-over-selected='true']  { opacity: 1.0; }
]]>
</style>
<script type="application/ecmascript"><![CDATA[
document.addEventListener('DOMContentLoaded', (event) => {
  highlightEdges();
  highlightAdjacentNodes();
});
]]></script>
</svg>
