<?xml version="1.0" encoding="UTF-8" standalone="no"?>
<!DOCTYPE svg PUBLIC "-//W3C//DTD SVG 1.1//EN"
 "http://www.w3.org/Graphics/SVG/1.1/DTD/svg11.dtd">
<!-- Generated by graphviz version 9.0.0 (20230911.1827)
 -->
<!-- Title: jcolonia.daw2023.teatrillo.Guion Pages: 1 -->
<svg width="227pt" height="537pt"
 viewBox="0.00 0.00 227.00 537.00" xmlns="http://www.w3.org/2000/svg" xmlns:xlink="http://www.w3.org/1999/xlink">
<g id="graph0" class="graph" transform="scale(1 1) rotate(0) translate(4 533)">
<title>jcolonia.daw2023.teatrillo.Guion</title>
<!-- Node1 -->
<g id="Node000001" class="node">
<title>Node1</title>
<g id="a_Node000001"><a xlink:title="Ensayo/comprobación de funcionalidad de las interfaces.">
<polygon fill="#999999" stroke="none" points="219,-84 42,-84 42,0 219,0 219,-84"/>
<text text-anchor="start" x="61.88" y="-70.5" font-family="Helvetica,sans-Serif" font-size="10.00">jcolonia.daw2023.teatrillo.Guion</text>
<text text-anchor="start" x="46" y="-54.5" font-family="Helvetica,sans-Serif" font-size="10.00">+</text>
<text text-anchor="start" x="56" y="-54.5" font-family="Helvetica,sans-Serif" font-size="10.00">static final String[] LISTA_ORIGINAL</text>
<text text-anchor="start" x="46" y="-38.5" font-family="Helvetica,sans-Serif" font-size="10.00">+</text>
<text text-anchor="start" x="56" y="-38.5" font-family="Helvetica,sans-Serif" font-size="10.00">Guion(String[] nombres)</text>
<text text-anchor="start" x="46" y="-22.5" font-family="Helvetica,sans-Serif" font-size="10.00">+</text>
<text text-anchor="start" x="56" y="-22.5" font-family="Helvetica,sans-Serif" font-size="10.00">void simularConversación()</text>
<text text-anchor="start" x="46" y="-6.5" font-family="Helvetica,sans-Serif" font-size="10.00">+</text>
<text text-anchor="start" x="56" y="-6.5" font-family="Helvetica,sans-Serif" font-size="10.00">static void main(String[] argumentos)</text>
<polygon fill="#666666" stroke="#666666" points="42,-66 42,-66 219,-66 219,-66 42,-66"/>
<polygon fill="#666666" stroke="#666666" points="42,-50 42,-50 54,-50 54,-50 42,-50"/>
<polygon fill="#666666" stroke="#666666" points="54,-50 54,-50 219,-50 219,-50 54,-50"/>
<polygon fill="none" stroke="#666666" points="42,0 42,-84 219,-84 219,0 42,0"/>
</a>
</g>
</g>
<!-- Node2 -->
<g id="Node000002" class="node">
<title>Node2</title>
<g id="a_Node000002"><a xlink:href="classjcolonia_1_1daw2023_1_1teatrillo_1_1_personaje.html" target="_top" xlink:title="Sujeto que interactúa saludando al resto de personajes, contabilizando el número de frases.">
<polygon fill="white" stroke="none" points="213,-328 48,-328 48,-132 213,-132 213,-328"/>
<text text-anchor="start" x="52.88" y="-314.5" font-family="Helvetica,sans-Serif" font-size="10.00">jcolonia.daw2023.teatrillo.Personaje</text>
<text text-anchor="start" x="56" y="-298.5" font-family="Helvetica,sans-Serif" font-size="10.00">&#45;</text>
<text text-anchor="start" x="67" y="-298.5" font-family="Helvetica,sans-Serif" font-size="10.00">int númFrases</text>
<text text-anchor="start" x="54.5" y="-282.5" font-family="Helvetica,sans-Serif" font-size="10.00">+</text>
<text text-anchor="start" x="67" y="-282.5" font-family="Helvetica,sans-Serif" font-size="10.00">Personaje(String nombre)</text>
<text text-anchor="start" x="54.5" y="-266.5" font-family="Helvetica,sans-Serif" font-size="10.00">+</text>
<text text-anchor="start" x="67" y="-266.5" font-family="Helvetica,sans-Serif" font-size="10.00">String saluda()</text>
<text text-anchor="start" x="54.5" y="-250.5" font-family="Helvetica,sans-Serif" font-size="10.00">+</text>
<text text-anchor="start" x="67" y="-250.5" font-family="Helvetica,sans-Serif" font-size="10.00">String saluda(Actor nuevoActor)</text>
<text text-anchor="start" x="54.5" y="-234.5" font-family="Helvetica,sans-Serif" font-size="10.00">+</text>
<text text-anchor="start" x="67" y="-234.5" font-family="Helvetica,sans-Serif" font-size="10.00">String despide()</text>
<text text-anchor="start" x="54.5" y="-218.5" font-family="Helvetica,sans-Serif" font-size="10.00">+</text>
<text text-anchor="start" x="67" y="-218.5" font-family="Helvetica,sans-Serif" font-size="10.00">String despide(Actor exActor)</text>
<text text-anchor="start" x="54.5" y="-202.5" font-family="Helvetica,sans-Serif" font-size="10.00">+</text>
<text text-anchor="start" x="67" y="-202.5" font-family="Helvetica,sans-Serif" font-size="10.00">String getIdentificador()</text>
<text text-anchor="start" x="54.5" y="-186.5" font-family="Helvetica,sans-Serif" font-size="10.00">+</text>
<text text-anchor="start" x="67" y="-186.5" font-family="Helvetica,sans-Serif" font-size="10.00">double getCantidad()</text>
<text text-anchor="start" x="54.5" y="-170.5" font-family="Helvetica,sans-Serif" font-size="10.00">+</text>
<text text-anchor="start" x="67" y="-170.5" font-family="Helvetica,sans-Serif" font-size="10.00">double getCoeficiente()</text>
<text text-anchor="start" x="54.5" y="-154.5" font-family="Helvetica,sans-Serif" font-size="10.00">+</text>
<text text-anchor="start" x="67" y="-154.5" font-family="Helvetica,sans-Serif" font-size="10.00">DatosNómina getDatos()</text>
<text text-anchor="start" x="56" y="-138.5" font-family="Helvetica,sans-Serif" font-size="10.00">&#45;</text>
<text text-anchor="start" x="67" y="-138.5" font-family="Helvetica,sans-Serif" font-size="10.00">void anotaFrase()</text>
<polygon fill="#666666" stroke="#666666" points="48,-310 48,-310 213,-310 213,-310 48,-310"/>
<polygon fill="#666666" stroke="#666666" points="48,-294 48,-294 65,-294 65,-294 48,-294"/>
<polygon fill="#666666" stroke="#666666" points="65,-294 65,-294 213,-294 213,-294 65,-294"/>
<polygon fill="none" stroke="#666666" points="48,-132 48,-328 213,-328 213,-132 48,-132"/>
</a>
</g>
</g>
<!-- Node2&#45;&gt;Node1 -->
<g id="edge1_Node000001_Node000002" class="edge">
<title>Node2&#45;&gt;Node1</title>
<g id="a_edge1_Node000001_Node000002"><a xlink:title=" ">
<path fill="none" stroke="#63b8ff" d="M130.5,-132.19C130.5,-119.88 130.5,-107.66 130.5,-96.39"/>
<polygon fill="none" stroke="#63b8ff" points="130.5,-96.56 126.5,-90.56 130.5,-84.56 134.5,-90.56 130.5,-96.56"/>
</a>
</g>
<text text-anchor="middle" x="150.75" y="-104.5" font-family="Helvetica,sans-Serif" font-size="10.00" fill="grey"> &#45;créditos</text>
</g>
<!-- Node3 -->
<g id="Node000003" class="node">
<title>Node3</title>
<g id="a_Node000003"><a xlink:href="classjcolonia_1_1daw2023_1_1teatrillo_1_1_actor.html" target="_top" xlink:title="Individuo del que almacenamos datos de identificación básicos: nombre e identificador.">
<polygon fill="white" stroke="none" points="145,-529 0,-529 0,-365 145,-365 145,-529"/>
<text text-anchor="start" x="5" y="-515.5" font-family="Helvetica,sans-Serif" font-size="10.00">jcolonia.daw2023.teatrillo.Actor</text>
<text text-anchor="start" x="8.5" y="-499.5" font-family="Helvetica,sans-Serif" font-size="10.00">&#45;</text>
<text text-anchor="start" x="20" y="-499.5" font-family="Helvetica,sans-Serif" font-size="10.00">String nombre</text>
<text text-anchor="start" x="8.5" y="-483.5" font-family="Helvetica,sans-Serif" font-size="10.00">&#45;</text>
<text text-anchor="start" x="20" y="-483.5" font-family="Helvetica,sans-Serif" font-size="10.00">int id</text>
<text text-anchor="start" x="8.5" y="-467.5" font-family="Helvetica,sans-Serif" font-size="10.00">&#45;</text>
<text text-anchor="start" x="20" y="-467.5" font-family="Helvetica,sans-Serif" font-size="10.00">static int númActores</text>
<text text-anchor="start" x="7" y="-451.5" font-family="Helvetica,sans-Serif" font-size="10.00">+</text>
<text text-anchor="start" x="20" y="-451.5" font-family="Helvetica,sans-Serif" font-size="10.00">Actor(String nombre)</text>
<text text-anchor="start" x="7" y="-435.5" font-family="Helvetica,sans-Serif" font-size="10.00">+</text>
<text text-anchor="start" x="20" y="-435.5" font-family="Helvetica,sans-Serif" font-size="10.00">String getNombre()</text>
<text text-anchor="start" x="7" y="-419.5" font-family="Helvetica,sans-Serif" font-size="10.00">+</text>
<text text-anchor="start" x="20" y="-419.5" font-family="Helvetica,sans-Serif" font-size="10.00">int getId()</text>
<text text-anchor="start" x="7" y="-403.5" font-family="Helvetica,sans-Serif" font-size="10.00">+</text>
<text text-anchor="start" x="20" y="-403.5" font-family="Helvetica,sans-Serif" font-size="10.00">String toString()</text>
<text text-anchor="start" x="7" y="-387.5" font-family="Helvetica,sans-Serif" font-size="10.00">+</text>
<text text-anchor="start" x="20" y="-387.5" font-family="Helvetica,sans-Serif" font-size="10.00">static int getNúmActores()</text>
<text text-anchor="start" x="7" y="-371.5" font-family="Helvetica,sans-Serif" font-size="10.00">~</text>
<text text-anchor="start" x="20" y="-371.5" font-family="Helvetica,sans-Serif" font-size="10.00">[static initializer]</text>
<polygon fill="#666666" stroke="#666666" points="0,-511 0,-511 145,-511 145,-511 0,-511"/>
<polygon fill="#666666" stroke="#666666" points="0,-463 0,-463 18,-463 18,-463 0,-463"/>
<polygon fill="#666666" stroke="#666666" points="18,-463 18,-463 145,-463 145,-463 18,-463"/>
<polygon fill="none" stroke="#666666" points="0,-365 0,-529 145,-529 145,-365 0,-365"/>
</a>
</g>
</g>
<!-- Node3&#45;&gt;Node2 -->
<g id="edge2_Node000002_Node000003" class="edge">
<title>Node3&#45;&gt;Node2</title>
<g id="a_edge2_Node000002_Node000003"><a xlink:title=" ">
<path fill="none" stroke="#63b8ff" d="M97.29,-354.1C99.64,-345.4 102.02,-336.57 104.38,-327.83"/>
<polygon fill="none" stroke="#63b8ff" points="93.96,-353 94.74,-363.56 100.72,-354.82 93.96,-353"/>
</a>
</g>
</g>
<!-- Node4 -->
<g id="Node000004" class="node">
<title>Node4</title>
<g id="a_Node000004"><a xlink:title=" ">
<polygon fill="white" stroke="none" points="213.5,-473 163.5,-473 163.5,-421 213.5,-421 213.5,-473"/>
<text text-anchor="start" x="168.25" y="-459.5" font-family="Helvetica,sans-Serif" font-size="10.00">Cotizable</text>
<text text-anchor="start" x="187" y="-443.5" font-family="Helvetica,sans-Serif" font-size="10.00"> </text>
<text text-anchor="start" x="187" y="-427.5" font-family="Helvetica,sans-Serif" font-size="10.00"> </text>
<polygon fill="#bfbfbf" stroke="#bfbfbf" points="163.5,-455 163.5,-455 213.5,-455 213.5,-455 163.5,-455"/>
<polygon fill="#bfbfbf" stroke="#bfbfbf" points="163.5,-439 163.5,-439 213.5,-439 213.5,-439 163.5,-439"/>
<polygon fill="none" stroke="#bfbfbf" points="163.5,-421 163.5,-473 213.5,-473 213.5,-421 163.5,-421"/>
</a>
</g>
</g>
<!-- Node4&#45;&gt;Node2 -->
<g id="edge3_Node000002_Node000004" class="edge">
<title>Node4&#45;&gt;Node2</title>
<g id="a_edge3_Node000002_Node000004"><a xlink:title=" ">
<path fill="none" stroke="#63b8ff" d="M178.86,-410.27C172.76,-387.64 164.55,-357.22 156.63,-327.86"/>
<polygon fill="none" stroke="#63b8ff" points="175.47,-411.13 181.45,-419.88 182.23,-409.31 175.47,-411.13"/>
</a>
</g>
</g>
</g>
</svg>
