<?xml version="1.0" encoding="UTF-8" standalone="no"?>
<!DOCTYPE svg PUBLIC "-//W3C//DTD SVG 1.1//EN"
 "http://www.w3.org/Graphics/SVG/1.1/DTD/svg11.dtd">
<!-- Generated by graphviz version 9.0.0 (20230911.1827)
 -->
<!-- Title: Gráfico de jerarquía de clases Pages: 1 -->
<svg width="366pt" height="66pt"
 viewBox="0.00 0.00 366.25 66.00" xmlns="http://www.w3.org/2000/svg" xmlns:xlink="http://www.w3.org/1999/xlink">
<g id="graph0" class="graph" transform="scale(1 1) rotate(0) translate(4 62)">
<title>Gráfico de jerarquía de clases</title>
<!-- Node0 -->
<g id="Node000000" class="node">
<title>Node0</title>
<g id="a_Node000000"><a xlink:href="classjcolonia_1_1daw2023_1_1teatrillo_1_1_actor.html" target="_top" xlink:title="Individuo del que almacenamos datos de identificación básicos: nombre e identificador.">
<polygon fill="white" stroke="#666666" points="151,-58 0,-58 0,-38 151,-38 151,-58"/>
<text text-anchor="middle" x="75.5" y="-44.5" font-family="Helvetica,sans-Serif" font-size="10.00">jcolonia.daw2023.teatrillo.Actor</text>
</a>
</g>
</g>
<!-- Node1 -->
<g id="Node000001" class="node">
<title>Node1</title>
<g id="a_Node000001"><a xlink:href="classjcolonia_1_1daw2023_1_1teatrillo_1_1_personaje.html" target="_top" xlink:title="Sujeto que interactúa saludando al resto de personajes, contabilizando el número de frases.">
<polygon fill="white" stroke="#666666" points="358.25,-39 187,-39 187,-19 358.25,-19 358.25,-39"/>
<text text-anchor="middle" x="272.62" y="-25.5" font-family="Helvetica,sans-Serif" font-size="10.00">jcolonia.daw2023.teatrillo.Personaje</text>
</a>
</g>
</g>
<!-- Node0&#45;&gt;Node1 -->
<g id="edge1_Node000000_Node000001" class="edge">
<title>Node0&#45;&gt;Node1</title>
<g id="a_edge1_Node000000_Node000001"><a xlink:title=" ">
<path fill="none" stroke="#63b8ff" d="M162.82,-39.59C170.69,-38.83 178.67,-38.05 186.53,-37.29"/>
<polygon fill="#63b8ff" stroke="#63b8ff" points="162.5,-36.11 152.89,-40.56 163.18,-43.08 162.5,-36.11"/>
</a>
</g>
</g>
<!-- Node2 -->
<g id="Node000002" class="node">
<title>Node2</title>
<g id="a_Node000002"><a xlink:title=" ">
<polygon fill="#e0e0e0" stroke="#999999" points="103.75,-20 47.25,-20 47.25,0 103.75,0 103.75,-20"/>
<text text-anchor="middle" x="75.5" y="-6.5" font-family="Helvetica,sans-Serif" font-size="10.00">Cotizable</text>
</a>
</g>
</g>
<!-- Node2&#45;&gt;Node1 -->
<g id="edge2_Node000002_Node000001" class="edge">
<title>Node2&#45;&gt;Node1</title>
<g id="a_edge2_Node000002_Node000001"><a xlink:title=" ">
<path fill="none" stroke="#63b8ff" d="M115.43,-13.79C135.93,-15.79 161.92,-18.32 186.79,-20.74"/>
<polygon fill="#63b8ff" stroke="#63b8ff" points="115.84,-10.31 105.55,-12.83 115.16,-17.28 115.84,-10.31"/>
</a>
</g>
</g>
</g>
</svg>
