<?xml version="1.0" encoding="UTF-8" standalone="no"?>
<!DOCTYPE svg PUBLIC "-//W3C//DTD SVG 1.1//EN"
 "http://www.w3.org/Graphics/SVG/1.1/DTD/svg11.dtd">
<!-- Generated by graphviz version 9.0.0 (20230911.1827)
 -->
<!-- Title: jcolonia.daw2023.g4d.Grupo4D Pages: 1 -->
<svg width="275pt" height="484pt"
 viewBox="0.00 0.00 275.00 484.00" xmlns="http://www.w3.org/2000/svg" xmlns:xlink="http://www.w3.org/1999/xlink">
<g id="graph0" class="graph" transform="scale(1 1) rotate(0) translate(4 480)">
<title>jcolonia.daw2023.g4d.Grupo4D</title>
<!-- Node1 -->
<g id="Node000001" class="node">
<title>Node1</title>
<g id="a_Node000001"><a xlink:title="Conjunto de cuatro números decimales.">
<polygon fill="#999999" stroke="none" points="247,-476 20,-476 20,-216 247,-216 247,-476"/>
<text text-anchor="start" x="66.38" y="-462.5" font-family="Helvetica,sans-Serif" font-size="10.00">jcolonia.daw2023.g4d.Grupo4D</text>
<text text-anchor="start" x="25.5" y="-446.5" font-family="Helvetica,sans-Serif" font-size="10.00">&#45;</text>
<text text-anchor="start" x="34" y="-446.5" font-family="Helvetica,sans-Serif" font-size="10.00">double a</text>
<text text-anchor="start" x="25.5" y="-430.5" font-family="Helvetica,sans-Serif" font-size="10.00">&#45;</text>
<text text-anchor="start" x="34" y="-430.5" font-family="Helvetica,sans-Serif" font-size="10.00">double b</text>
<text text-anchor="start" x="25.5" y="-414.5" font-family="Helvetica,sans-Serif" font-size="10.00">&#45;</text>
<text text-anchor="start" x="34" y="-414.5" font-family="Helvetica,sans-Serif" font-size="10.00">double c</text>
<text text-anchor="start" x="25.5" y="-398.5" font-family="Helvetica,sans-Serif" font-size="10.00">&#45;</text>
<text text-anchor="start" x="34" y="-398.5" font-family="Helvetica,sans-Serif" font-size="10.00">double d</text>
<text text-anchor="start" x="24" y="-382.5" font-family="Helvetica,sans-Serif" font-size="10.00">+</text>
<text text-anchor="start" x="34" y="-382.5" font-family="Helvetica,sans-Serif" font-size="10.00">Grupo4D()</text>
<text text-anchor="start" x="24" y="-366.5" font-family="Helvetica,sans-Serif" font-size="10.00">+</text>
<text text-anchor="start" x="34" y="-366.5" font-family="Helvetica,sans-Serif" font-size="10.00">Grupo4D(double a, double b, double c, double d)</text>
<text text-anchor="start" x="24" y="-350.5" font-family="Helvetica,sans-Serif" font-size="10.00">+</text>
<text text-anchor="start" x="34" y="-350.5" font-family="Helvetica,sans-Serif" font-size="10.00">double getA()</text>
<text text-anchor="start" x="24" y="-334.5" font-family="Helvetica,sans-Serif" font-size="10.00">+</text>
<text text-anchor="start" x="34" y="-334.5" font-family="Helvetica,sans-Serif" font-size="10.00">void setA(double valor)</text>
<text text-anchor="start" x="24" y="-318.5" font-family="Helvetica,sans-Serif" font-size="10.00">+</text>
<text text-anchor="start" x="34" y="-318.5" font-family="Helvetica,sans-Serif" font-size="10.00">double getB()</text>
<text text-anchor="start" x="24" y="-302.5" font-family="Helvetica,sans-Serif" font-size="10.00">+</text>
<text text-anchor="start" x="34" y="-302.5" font-family="Helvetica,sans-Serif" font-size="10.00">void setB(double valor)</text>
<text text-anchor="start" x="24" y="-286.5" font-family="Helvetica,sans-Serif" font-size="10.00">+</text>
<text text-anchor="start" x="34" y="-286.5" font-family="Helvetica,sans-Serif" font-size="10.00">double getC()</text>
<text text-anchor="start" x="24" y="-270.5" font-family="Helvetica,sans-Serif" font-size="10.00">+</text>
<text text-anchor="start" x="34" y="-270.5" font-family="Helvetica,sans-Serif" font-size="10.00">void setC(double valor)</text>
<text text-anchor="start" x="24" y="-254.5" font-family="Helvetica,sans-Serif" font-size="10.00">+</text>
<text text-anchor="start" x="34" y="-254.5" font-family="Helvetica,sans-Serif" font-size="10.00">double getD()</text>
<text text-anchor="start" x="24" y="-238.5" font-family="Helvetica,sans-Serif" font-size="10.00">+</text>
<text text-anchor="start" x="34" y="-238.5" font-family="Helvetica,sans-Serif" font-size="10.00">void setD(double valor)</text>
<text text-anchor="start" x="24" y="-222.5" font-family="Helvetica,sans-Serif" font-size="10.00">+</text>
<text text-anchor="start" x="34" y="-222.5" font-family="Helvetica,sans-Serif" font-size="10.00">String toString()</text>
<polygon fill="#666666" stroke="#666666" points="20,-458 20,-458 247,-458 247,-458 20,-458"/>
<polygon fill="#666666" stroke="#666666" points="20,-394 20,-394 32,-394 32,-394 20,-394"/>
<polygon fill="#666666" stroke="#666666" points="32,-394 32,-394 247,-394 247,-394 32,-394"/>
<polygon fill="none" stroke="#666666" points="20,-216 20,-476 247,-476 247,-216 20,-216"/>
</a>
</g>
</g>
<!-- Node2 -->
<g id="Node000002" class="node">
<title>Node2</title>
<g id="a_Node000002"><a xlink:href="classjcolonia_1_1daw2023_1_1g4d_1_1_grupo4_d_mejorado.html" target="_top" xlink:title="Conjunto de cuatro números decimales, facilita el acceso a esos cuatro valores en forma de lista («ar...">
<polygon fill="white" stroke="none" points="267,-180 0,-180 0,0 267,0 267,-180"/>
<text text-anchor="start" x="46.5" y="-166.5" font-family="Helvetica,sans-Serif" font-size="10.00">jcolonia.daw2023.g4d.Grupo4DMejorado</text>
<text text-anchor="start" x="132" y="-150.5" font-family="Helvetica,sans-Serif" font-size="10.00"> </text>
<text text-anchor="start" x="4" y="-134.5" font-family="Helvetica,sans-Serif" font-size="10.00">+</text>
<text text-anchor="start" x="14" y="-134.5" font-family="Helvetica,sans-Serif" font-size="10.00">Grupo4DMejorado()</text>
<text text-anchor="start" x="4" y="-118.5" font-family="Helvetica,sans-Serif" font-size="10.00">+</text>
<text text-anchor="start" x="14" y="-118.5" font-family="Helvetica,sans-Serif" font-size="10.00">Grupo4DMejorado(double a, double b, double c, double d)</text>
<text text-anchor="start" x="4" y="-102.5" font-family="Helvetica,sans-Serif" font-size="10.00">+</text>
<text text-anchor="start" x="14" y="-102.5" font-family="Helvetica,sans-Serif" font-size="10.00">Grupo4DMejorado(double[] valores)</text>
<text text-anchor="start" x="4" y="-86.5" font-family="Helvetica,sans-Serif" font-size="10.00">+</text>
<text text-anchor="start" x="14" y="-86.5" font-family="Helvetica,sans-Serif" font-size="10.00">void setValores(double[] valores)</text>
<text text-anchor="start" x="4" y="-70.5" font-family="Helvetica,sans-Serif" font-size="10.00">+</text>
<text text-anchor="start" x="14" y="-70.5" font-family="Helvetica,sans-Serif" font-size="10.00">double[] getValores()</text>
<text text-anchor="start" x="4" y="-54.5" font-family="Helvetica,sans-Serif" font-size="10.00">+</text>
<text text-anchor="start" x="14" y="-54.5" font-family="Helvetica,sans-Serif" font-size="10.00">double suma()</text>
<text text-anchor="start" x="4" y="-38.5" font-family="Helvetica,sans-Serif" font-size="10.00">+</text>
<text text-anchor="start" x="14" y="-38.5" font-family="Helvetica,sans-Serif" font-size="10.00">double media()</text>
<text text-anchor="start" x="4" y="-22.5" font-family="Helvetica,sans-Serif" font-size="10.00">+</text>
<text text-anchor="start" x="14" y="-22.5" font-family="Helvetica,sans-Serif" font-size="10.00">double máximo()</text>
<text text-anchor="start" x="4" y="-6.5" font-family="Helvetica,sans-Serif" font-size="10.00">+</text>
<text text-anchor="start" x="14" y="-6.5" font-family="Helvetica,sans-Serif" font-size="10.00">double mínimo()</text>
<polygon fill="#666666" stroke="#666666" points="0,-162 0,-162 267,-162 267,-162 0,-162"/>
<polygon fill="#666666" stroke="#666666" points="0,-146 0,-146 267,-146 267,-146 0,-146"/>
<polygon fill="none" stroke="#666666" points="0,0 0,-180 267,-180 267,0 0,0"/>
</a>
</g>
</g>
<!-- Node1&#45;&gt;Node2 -->
<g id="edge1_Node000001_Node000002" class="edge">
<title>Node1&#45;&gt;Node2</title>
<g id="a_edge1_Node000001_Node000002"><a xlink:title=" ">
<path fill="none" stroke="#63b8ff" d="M133.5,-204.65C133.5,-196.25 133.5,-187.92 133.5,-179.83"/>
<polygon fill="none" stroke="#63b8ff" points="130,-204.63 133.5,-214.63 137,-204.63 130,-204.63"/>
</a>
</g>
</g>
</g>
</svg>
