<?xml version="1.0" encoding="UTF-8" standalone="no"?>
<!DOCTYPE svg PUBLIC "-//W3C//DTD SVG 1.1//EN"
 "http://www.w3.org/Graphics/SVG/1.1/DTD/svg11.dtd">
<!-- Generated by graphviz version 9.0.0 (20230911.1827)
 -->
<!-- Title: jcolonia.daw2024.rmd.drumfest.VistaGeneral Pages: 1 -->
<svg width="211pt" height="188pt"
 viewBox="0.00 0.00 211.00 188.00" xmlns="http://www.w3.org/2000/svg" xmlns:xlink="http://www.w3.org/1999/xlink">
<g id="graph0" class="graph" transform="scale(1 1) rotate(0) translate(4 184)">
<title>jcolonia.daw2024.rmd.drumfest.VistaGeneral</title>
<!-- Node1 -->
<g id="Node000001" class="node">
<title>Node1</title>
<g id="a_Node000001"><a xlink:title="Vista general para la interacción con el usuario.">
<polygon fill="#999999" stroke="none" points="203,-180 0,-180 0,0 203,0 203,-180"/>
<text text-anchor="start" x="4.75" y="-166.5" font-family="Helvetica,sans-Serif" font-size="10.00">jcolonia.daw2024.rmd.drumfest.VistaGeneral</text>
<text text-anchor="start" x="8" y="-150.5" font-family="Helvetica,sans-Serif" font-size="10.00">&#45;</text>
<text text-anchor="start" x="19" y="-150.5" font-family="Helvetica,sans-Serif" font-size="10.00">String nombre</text>
<text text-anchor="start" x="8" y="-134.5" font-family="Helvetica,sans-Serif" font-size="10.00">&#45;</text>
<text text-anchor="start" x="19" y="-134.5" font-family="Helvetica,sans-Serif" font-size="10.00">Scanner scEntrada</text>
<text text-anchor="start" x="8" y="-118.5" font-family="Helvetica,sans-Serif" font-size="10.00">&#45;</text>
<text text-anchor="start" x="19" y="-118.5" font-family="Helvetica,sans-Serif" font-size="10.00">static final String SI</text>
<text text-anchor="start" x="8" y="-102.5" font-family="Helvetica,sans-Serif" font-size="10.00">&#45;</text>
<text text-anchor="start" x="19" y="-102.5" font-family="Helvetica,sans-Serif" font-size="10.00">static final String NO</text>
<text text-anchor="start" x="6.5" y="-86.5" font-family="Helvetica,sans-Serif" font-size="10.00">+</text>
<text text-anchor="start" x="19" y="-86.5" font-family="Helvetica,sans-Serif" font-size="10.00">VistaGeneral(String nombre, Scanner in)</text>
<text text-anchor="start" x="6.5" y="-70.5" font-family="Helvetica,sans-Serif" font-size="10.00">+</text>
<text text-anchor="start" x="19" y="-70.5" font-family="Helvetica,sans-Serif" font-size="10.00">void mostrarTítulo()</text>
<text text-anchor="start" x="6.5" y="-54.5" font-family="Helvetica,sans-Serif" font-size="10.00">+</text>
<text text-anchor="start" x="19" y="-54.5" font-family="Helvetica,sans-Serif" font-size="10.00">Scanner getScEntrada()</text>
<text text-anchor="start" x="6.5" y="-38.5" font-family="Helvetica,sans-Serif" font-size="10.00">+</text>
<text text-anchor="start" x="19" y="-38.5" font-family="Helvetica,sans-Serif" font-size="10.00">boolean pedirConfirmación()</text>
<text text-anchor="start" x="6.5" y="-22.5" font-family="Helvetica,sans-Serif" font-size="10.00">+</text>
<text text-anchor="start" x="19" y="-22.5" font-family="Helvetica,sans-Serif" font-size="10.00">String leerTexto(String pregunta)</text>
<text text-anchor="start" x="6.5" y="-6.5" font-family="Helvetica,sans-Serif" font-size="10.00">+</text>
<text text-anchor="start" x="19" y="-6.5" font-family="Helvetica,sans-Serif" font-size="10.00">int leerNúmero(String pregunta)</text>
<polygon fill="#666666" stroke="#666666" points="0,-162 0,-162 203,-162 203,-162 0,-162"/>
<polygon fill="#666666" stroke="#666666" points="0,-98 0,-98 17,-98 17,-98 0,-98"/>
<polygon fill="#666666" stroke="#666666" points="17,-98 17,-98 203,-98 203,-98 17,-98"/>
<polygon fill="none" stroke="#666666" points="0,0 0,-180 203,-180 203,0 0,0"/>
</a>
</g>
</g>
</g>
</svg>
