<?xml version="1.0" encoding="UTF-8" standalone="no"?>
<!DOCTYPE svg PUBLIC "-//W3C//DTD SVG 1.1//EN"
 "http://www.w3.org/Graphics/SVG/1.1/DTD/svg11.dtd">
<!-- Generated by graphviz version 9.0.0 (20230911.1827)
 -->
<!-- Title: jcolonia.daw2024.rmd.drumfest.ControlBandas Pages: 1 -->
<svg width="510pt" height="745pt"
 viewBox="0.00 0.00 509.50 745.00" xmlns="http://www.w3.org/2000/svg" xmlns:xlink="http://www.w3.org/1999/xlink">
<g id="graph0" class="graph" transform="scale(1 1) rotate(0) translate(4 741)">
<title>jcolonia.daw2024.rmd.drumfest.ControlBandas</title>
<!-- Node1 -->
<g id="Node000001" class="node">
<title>Node1</title>
<g id="a_Node000001"><a xlink:title="Control de introducción, listado, borrado, exportación e importación del conjunto «Festival» de banda...">
<polygon fill="#999999" stroke="none" points="302.5,-260 62.5,-260 62.5,0 302.5,0 302.5,-260"/>
<text text-anchor="start" x="82" y="-246.5" font-family="Helvetica,sans-Serif" font-size="10.00">jcolonia.daw2024.rmd.drumfest.ControlBandas</text>
<text text-anchor="start" x="66.5" y="-230.5" font-family="Helvetica,sans-Serif" font-size="10.00">+</text>
<text text-anchor="start" x="76.5" y="-230.5" font-family="Helvetica,sans-Serif" font-size="10.00">static final String[] OPCIONES_MENÚ_PRINCIPAL</text>
<text text-anchor="start" x="68" y="-214.5" font-family="Helvetica,sans-Serif" font-size="10.00">&#45;</text>
<text text-anchor="start" x="76.5" y="-214.5" font-family="Helvetica,sans-Serif" font-size="10.00">Scanner entrada</text>
<text text-anchor="start" x="68" y="-198.5" font-family="Helvetica,sans-Serif" font-size="10.00">&#45;</text>
<text text-anchor="start" x="76.5" y="-198.5" font-family="Helvetica,sans-Serif" font-size="10.00">static final String NOMBRE_PREDETERMINADO</text>
<text text-anchor="start" x="68" y="-182.5" font-family="Helvetica,sans-Serif" font-size="10.00">&#45;</text>
<text text-anchor="start" x="76.5" y="-182.5" font-family="Helvetica,sans-Serif" font-size="10.00">static final String YELLOW</text>
<text text-anchor="start" x="68" y="-166.5" font-family="Helvetica,sans-Serif" font-size="10.00">&#45;</text>
<text text-anchor="start" x="76.5" y="-166.5" font-family="Helvetica,sans-Serif" font-size="10.00">static final String GREEN</text>
<text text-anchor="start" x="68" y="-150.5" font-family="Helvetica,sans-Serif" font-size="10.00">&#45;</text>
<text text-anchor="start" x="76.5" y="-150.5" font-family="Helvetica,sans-Serif" font-size="10.00">static final String RESET</text>
<text text-anchor="start" x="66.5" y="-134.5" font-family="Helvetica,sans-Serif" font-size="10.00">+</text>
<text text-anchor="start" x="76.5" y="-134.5" font-family="Helvetica,sans-Serif" font-size="10.00">ControlBandas(Scanner entrada)</text>
<text text-anchor="start" x="66.5" y="-118.5" font-family="Helvetica,sans-Serif" font-size="10.00">+</text>
<text text-anchor="start" x="76.5" y="-118.5" font-family="Helvetica,sans-Serif" font-size="10.00">void importarBandas()</text>
<text text-anchor="start" x="66.5" y="-102.5" font-family="Helvetica,sans-Serif" font-size="10.00">+</text>
<text text-anchor="start" x="76.5" y="-102.5" font-family="Helvetica,sans-Serif" font-size="10.00">void exportarBandas()</text>
<text text-anchor="start" x="66.5" y="-86.5" font-family="Helvetica,sans-Serif" font-size="10.00">+</text>
<text text-anchor="start" x="76.5" y="-86.5" font-family="Helvetica,sans-Serif" font-size="10.00">void listarBandas()</text>
<text text-anchor="start" x="66.5" y="-70.5" font-family="Helvetica,sans-Serif" font-size="10.00">+</text>
<text text-anchor="start" x="76.5" y="-70.5" font-family="Helvetica,sans-Serif" font-size="10.00">void introducirBandas()</text>
<text text-anchor="start" x="66.5" y="-54.5" font-family="Helvetica,sans-Serif" font-size="10.00">+</text>
<text text-anchor="start" x="76.5" y="-54.5" font-family="Helvetica,sans-Serif" font-size="10.00">void borrarBandas()</text>
<text text-anchor="start" x="66.5" y="-38.5" font-family="Helvetica,sans-Serif" font-size="10.00">+</text>
<text text-anchor="start" x="76.5" y="-38.5" font-family="Helvetica,sans-Serif" font-size="10.00">void informaciónAplicación()</text>
<text text-anchor="start" x="66.5" y="-22.5" font-family="Helvetica,sans-Serif" font-size="10.00">+</text>
<text text-anchor="start" x="76.5" y="-22.5" font-family="Helvetica,sans-Serif" font-size="10.00">void buclePrincipal()</text>
<text text-anchor="start" x="66.5" y="-6.5" font-family="Helvetica,sans-Serif" font-size="10.00">+</text>
<text text-anchor="start" x="76.5" y="-6.5" font-family="Helvetica,sans-Serif" font-size="10.00">static void main(String[] argumentos)</text>
<polygon fill="#666666" stroke="#666666" points="62.5,-242 62.5,-242 302.5,-242 302.5,-242 62.5,-242"/>
<polygon fill="#666666" stroke="#666666" points="62.5,-146 62.5,-146 74.5,-146 74.5,-146 62.5,-146"/>
<polygon fill="#666666" stroke="#666666" points="74.5,-146 74.5,-146 302.5,-146 302.5,-146 74.5,-146"/>
<polygon fill="none" stroke="#666666" points="62.5,0 62.5,-260 302.5,-260 302.5,0 62.5,0"/>
</a>
</g>
</g>
<!-- Node2 -->
<g id="Node000002" class="node">
<title>Node2</title>
<g id="a_Node000002"><a xlink:href="classjcolonia_1_1daw2024_1_1rmd_1_1drumfest_1_1_festival.html" target="_top" xlink:title="Conjunto en forma de («array») de un número determinado de elementos «Banda».">
<polygon fill="white" stroke="none" points="267,-520 0,-520 0,-308 267,-308 267,-520"/>
<text text-anchor="start" x="48.38" y="-506.5" font-family="Helvetica,sans-Serif" font-size="10.00">jcolonia.daw2024.rmd.drumfest.Festival</text>
<text text-anchor="start" x="5.5" y="-490.5" font-family="Helvetica,sans-Serif" font-size="10.00">&#45;</text>
<text text-anchor="start" x="14" y="-490.5" font-family="Helvetica,sans-Serif" font-size="10.00">Vector&lt; Banda &gt; conjuntoBandas</text>
<text text-anchor="start" x="4" y="-474.5" font-family="Helvetica,sans-Serif" font-size="10.00">+</text>
<text text-anchor="start" x="14" y="-474.5" font-family="Helvetica,sans-Serif" font-size="10.00">Festival()</text>
<text text-anchor="start" x="4" y="-458.5" font-family="Helvetica,sans-Serif" font-size="10.00">+</text>
<text text-anchor="start" x="14" y="-458.5" font-family="Helvetica,sans-Serif" font-size="10.00">void añadir(Banda elemento)</text>
<text text-anchor="start" x="4" y="-442.5" font-family="Helvetica,sans-Serif" font-size="10.00">+</text>
<text text-anchor="start" x="14" y="-442.5" font-family="Helvetica,sans-Serif" font-size="10.00">void añadirTodos(Vector&lt; Banda &gt; elementos)</text>
<text text-anchor="start" x="4" y="-426.5" font-family="Helvetica,sans-Serif" font-size="10.00">+</text>
<text text-anchor="start" x="14" y="-426.5" font-family="Helvetica,sans-Serif" font-size="10.00">Banda consultarPosición(int posición)</text>
<text text-anchor="start" x="4" y="-410.5" font-family="Helvetica,sans-Serif" font-size="10.00">+</text>
<text text-anchor="start" x="14" y="-410.5" font-family="Helvetica,sans-Serif" font-size="10.00">boolean consultarElementosVacíos()</text>
<text text-anchor="start" x="4" y="-394.5" font-family="Helvetica,sans-Serif" font-size="10.00">+</text>
<text text-anchor="start" x="14" y="-394.5" font-family="Helvetica,sans-Serif" font-size="10.00">int númeroElementos()</text>
<text text-anchor="start" x="4" y="-378.5" font-family="Helvetica,sans-Serif" font-size="10.00">+</text>
<text text-anchor="start" x="14" y="-378.5" font-family="Helvetica,sans-Serif" font-size="10.00">void eliminarTodos()</text>
<text text-anchor="start" x="4" y="-362.5" font-family="Helvetica,sans-Serif" font-size="10.00">+</text>
<text text-anchor="start" x="14" y="-362.5" font-family="Helvetica,sans-Serif" font-size="10.00">Banda eliminarElemento(int posición)</text>
<text text-anchor="start" x="4" y="-346.5" font-family="Helvetica,sans-Serif" font-size="10.00">+</text>
<text text-anchor="start" x="14" y="-346.5" font-family="Helvetica,sans-Serif" font-size="10.00">List&lt; String &gt; toTextoListado()</text>
<text text-anchor="start" x="4" y="-330.5" font-family="Helvetica,sans-Serif" font-size="10.00">+</text>
<text text-anchor="start" x="14" y="-330.5" font-family="Helvetica,sans-Serif" font-size="10.00">List&lt; String &gt; toCSVTextoListado()</text>
<text text-anchor="start" x="4" y="-314.5" font-family="Helvetica,sans-Serif" font-size="10.00">+</text>
<text text-anchor="start" x="14" y="-314.5" font-family="Helvetica,sans-Serif" font-size="10.00">static Festival ofFestival(List&lt; String &gt; líneasArchivoCSV)</text>
<polygon fill="#666666" stroke="#666666" points="0,-502 0,-502 267,-502 267,-502 0,-502"/>
<polygon fill="#666666" stroke="#666666" points="0,-486 0,-486 12,-486 12,-486 0,-486"/>
<polygon fill="#666666" stroke="#666666" points="12,-486 12,-486 267,-486 267,-486 12,-486"/>
<polygon fill="none" stroke="#666666" points="0,-308 0,-520 267,-520 267,-308 0,-308"/>
</a>
</g>
</g>
<!-- Node2&#45;&gt;Node1 -->
<g id="edge1_Node000001_Node000002" class="edge">
<title>Node2&#45;&gt;Node1</title>
<g id="a_edge1_Node000001_Node000002"><a xlink:title=" ">
<path fill="none" stroke="#63b8ff" d="M151.68,-308.39C153.72,-296.64 155.82,-284.53 157.93,-272.42"/>
<polygon fill="none" stroke="#63b8ff" points="157.91,-272.52 155,-265.92 159.96,-260.69 162.88,-267.29 157.91,-272.52"/>
</a>
</g>
<text text-anchor="middle" x="195.38" y="-280.5" font-family="Helvetica,sans-Serif" font-size="10.00" fill="grey"> &#45;conjuntoBandas</text>
</g>
<!-- Node3 -->
<g id="Node000003" class="node">
<title>Node3</title>
<g id="a_Node000003"><a xlink:href="classjcolonia_1_1daw2024_1_1rmd_1_1drumfest_1_1_vista_listado.html" target="_top" xlink:title="Vista del listado de un conjunto de elementos en forma de («array») de cadenas de texto.">
<polygon fill="white" stroke="none" points="501.5,-496 285.5,-496 285.5,-332 501.5,-332 501.5,-496"/>
<text text-anchor="start" x="297.88" y="-482.5" font-family="Helvetica,sans-Serif" font-size="10.00">jcolonia.daw2024.rmd.drumfest.VistaListado</text>
<text text-anchor="start" x="291" y="-466.5" font-family="Helvetica,sans-Serif" font-size="10.00">&#45;</text>
<text text-anchor="start" x="299.5" y="-466.5" font-family="Helvetica,sans-Serif" font-size="10.00">String nombre</text>
<text text-anchor="start" x="291" y="-450.5" font-family="Helvetica,sans-Serif" font-size="10.00">&#45;</text>
<text text-anchor="start" x="299.5" y="-450.5" font-family="Helvetica,sans-Serif" font-size="10.00">static final String CYAN</text>
<text text-anchor="start" x="291" y="-434.5" font-family="Helvetica,sans-Serif" font-size="10.00">&#45;</text>
<text text-anchor="start" x="299.5" y="-434.5" font-family="Helvetica,sans-Serif" font-size="10.00">static final String RESET</text>
<text text-anchor="start" x="291" y="-418.5" font-family="Helvetica,sans-Serif" font-size="10.00">&#45;</text>
<text text-anchor="start" x="299.5" y="-418.5" font-family="Helvetica,sans-Serif" font-size="10.00">static final String[] CABECERA_LISTADO</text>
<text text-anchor="start" x="289.5" y="-402.5" font-family="Helvetica,sans-Serif" font-size="10.00">+</text>
<text text-anchor="start" x="299.5" y="-402.5" font-family="Helvetica,sans-Serif" font-size="10.00">VistaListado(String nombre, Scanner entrada)</text>
<text text-anchor="start" x="289.5" y="-386.5" font-family="Helvetica,sans-Serif" font-size="10.00">+</text>
<text text-anchor="start" x="299.5" y="-386.5" font-family="Helvetica,sans-Serif" font-size="10.00">void mostrarTítulo()</text>
<text text-anchor="start" x="289.5" y="-370.5" font-family="Helvetica,sans-Serif" font-size="10.00">+</text>
<text text-anchor="start" x="299.5" y="-370.5" font-family="Helvetica,sans-Serif" font-size="10.00">void mostrarCabecera()</text>
<text text-anchor="start" x="289.5" y="-354.5" font-family="Helvetica,sans-Serif" font-size="10.00">+</text>
<text text-anchor="start" x="299.5" y="-354.5" font-family="Helvetica,sans-Serif" font-size="10.00">void listar(List&lt; String &gt; elemento)</text>
<text text-anchor="start" x="289.5" y="-338.5" font-family="Helvetica,sans-Serif" font-size="10.00">+</text>
<text text-anchor="start" x="299.5" y="-338.5" font-family="Helvetica,sans-Serif" font-size="10.00">void acercaDe()</text>
<polygon fill="#666666" stroke="#666666" points="285.5,-478 285.5,-478 501.5,-478 501.5,-478 285.5,-478"/>
<polygon fill="#666666" stroke="#666666" points="285.5,-414 285.5,-414 297.5,-414 297.5,-414 285.5,-414"/>
<polygon fill="#666666" stroke="#666666" points="297.5,-414 297.5,-414 501.5,-414 501.5,-414 297.5,-414"/>
<polygon fill="none" stroke="#666666" points="285.5,-332 285.5,-496 501.5,-496 501.5,-332 285.5,-332"/>
</a>
</g>
</g>
<!-- Node3&#45;&gt;Node1 -->
<g id="edge2_Node000001_Node000003" class="edge">
<title>Node3&#45;&gt;Node1</title>
<g id="a_edge2_Node000001_Node000003"><a xlink:title=" ">
<path fill="none" stroke="#63b8ff" d="M333.04,-332.19C318.49,-312.75 302.54,-291.43 286.62,-270.16"/>
<polygon fill="none" stroke="#63b8ff" points="286.55,-270.07 279.76,-267.66 279.36,-260.46 286.16,-262.87 286.55,-270.07"/>
</a>
</g>
<text text-anchor="middle" x="329" y="-280.5" font-family="Helvetica,sans-Serif" font-size="10.00" fill="grey"> &#45;vistaListado</text>
</g>
<!-- Node4 -->
<g id="Node000004" class="node">
<title>Node4</title>
<g id="a_Node000004"><a xlink:href="classjcolonia_1_1daw2024_1_1rmd_1_1drumfest_1_1_vista_general.html" target="_top" xlink:title="Vista general para la interacción con el usuario.">
<polygon fill="white" stroke="none" points="495,-737 292,-737 292,-557 495,-557 495,-737"/>
<text text-anchor="start" x="296.75" y="-723.5" font-family="Helvetica,sans-Serif" font-size="10.00">jcolonia.daw2024.rmd.drumfest.VistaGeneral</text>
<text text-anchor="start" x="300" y="-707.5" font-family="Helvetica,sans-Serif" font-size="10.00">&#45;</text>
<text text-anchor="start" x="311" y="-707.5" font-family="Helvetica,sans-Serif" font-size="10.00">String nombre</text>
<text text-anchor="start" x="300" y="-691.5" font-family="Helvetica,sans-Serif" font-size="10.00">&#45;</text>
<text text-anchor="start" x="311" y="-691.5" font-family="Helvetica,sans-Serif" font-size="10.00">Scanner scEntrada</text>
<text text-anchor="start" x="300" y="-675.5" font-family="Helvetica,sans-Serif" font-size="10.00">&#45;</text>
<text text-anchor="start" x="311" y="-675.5" font-family="Helvetica,sans-Serif" font-size="10.00">static final String SI</text>
<text text-anchor="start" x="300" y="-659.5" font-family="Helvetica,sans-Serif" font-size="10.00">&#45;</text>
<text text-anchor="start" x="311" y="-659.5" font-family="Helvetica,sans-Serif" font-size="10.00">static final String NO</text>
<text text-anchor="start" x="298.5" y="-643.5" font-family="Helvetica,sans-Serif" font-size="10.00">+</text>
<text text-anchor="start" x="311" y="-643.5" font-family="Helvetica,sans-Serif" font-size="10.00">VistaGeneral(String nombre, Scanner in)</text>
<text text-anchor="start" x="298.5" y="-627.5" font-family="Helvetica,sans-Serif" font-size="10.00">+</text>
<text text-anchor="start" x="311" y="-627.5" font-family="Helvetica,sans-Serif" font-size="10.00">void mostrarTítulo()</text>
<text text-anchor="start" x="298.5" y="-611.5" font-family="Helvetica,sans-Serif" font-size="10.00">+</text>
<text text-anchor="start" x="311" y="-611.5" font-family="Helvetica,sans-Serif" font-size="10.00">Scanner getScEntrada()</text>
<text text-anchor="start" x="298.5" y="-595.5" font-family="Helvetica,sans-Serif" font-size="10.00">+</text>
<text text-anchor="start" x="311" y="-595.5" font-family="Helvetica,sans-Serif" font-size="10.00">boolean pedirConfirmación()</text>
<text text-anchor="start" x="298.5" y="-579.5" font-family="Helvetica,sans-Serif" font-size="10.00">+</text>
<text text-anchor="start" x="311" y="-579.5" font-family="Helvetica,sans-Serif" font-size="10.00">String leerTexto(String pregunta)</text>
<text text-anchor="start" x="298.5" y="-563.5" font-family="Helvetica,sans-Serif" font-size="10.00">+</text>
<text text-anchor="start" x="311" y="-563.5" font-family="Helvetica,sans-Serif" font-size="10.00">int leerNúmero(String pregunta)</text>
<polygon fill="#666666" stroke="#666666" points="292,-719 292,-719 495,-719 495,-719 292,-719"/>
<polygon fill="#666666" stroke="#666666" points="292,-655 292,-655 309,-655 309,-655 292,-655"/>
<polygon fill="#666666" stroke="#666666" points="309,-655 309,-655 495,-655 495,-655 309,-655"/>
<polygon fill="none" stroke="#666666" points="292,-557 292,-737 495,-737 495,-557 292,-557"/>
</a>
</g>
</g>
<!-- Node4&#45;&gt;Node3 -->
<g id="edge3_Node000003_Node000004" class="edge">
<title>Node4&#45;&gt;Node3</title>
<g id="a_edge3_Node000003_Node000004"><a xlink:title=" ">
<path fill="none" stroke="#63b8ff" d="M393.5,-545.62C393.5,-529.04 393.5,-512.03 393.5,-495.99"/>
<polygon fill="none" stroke="#63b8ff" points="390,-545.51 393.5,-555.51 397,-545.51 390,-545.51"/>
</a>
</g>
</g>
</g>
</svg>
